P3
8 8
255
115 102 90 130 113 98 132 112 95 110 83 82 119 89 90 129 96 97 137 105 105 
137 110 109 105 92 82 118 100 88 117 96 83 119 97 94 120 95 92 121 92 90 
127 98 96 125 99 95 78 65 56 95 76 68 102 80 72 97 83 75 99 81 74 104 82 75 
120 96 89 127 103 95 74 60 53 80 60 54 88 64 58 85 75 63 84 72 60 84 68 56 
101 82 69 125 103 89 136 123 112 118 98 89 120 96 86 107 96 82 92 81 65 
72 60 43 76 62 43 108 90 70 155 143 127 134 114 98 147 123 105 117 100 86 
95 80 63 77 66 45 83 72 48 110 97 70 105 93 71 110 91 66 135 112 84 128 103 89 
99 79 62 96 82 60 114 105 77 120 112 79 97 86 60 132 114 83 154 132 97 
160 130 117 117 93 76 114 98 75 130 122 92 113 107 71 
