P3
8 8
255
5 139 6 0 132 0 0 133 0 3 141 4 3 144 4 1 138 0 4 132 0 8 132 0 8 144 8 
4 136 1 0 129 0 2 136 3 1 139 2 1 135 0 6 132 0 11 132 3 5 143 4 0 132 0 
4 127 2 2 131 2 1 135 4 2 133 1 7 134 3 13 134 7 5 146 5 0 134 0 5 130 2 
4 133 4 2 136 3 2 136 3 6 137 5 11 138 7 3 144 3 0 133 0 5 135 1 5 137 2 
3 137 2 2 139 0 2 140 1 4 141 2 0 138 0 0 131 0 2 139 0 2 137 0 3 135 0 
1 136 0 0 139 0 0 142 0 1 135 2 5 135 3 0 138 1 2 134 0 4 130 0 4 131 0 
1 137 1 0 143 2 0 127 0 6 135 6 0 138 3 3 130 1 5 124 0 7 128 1 6 137 5 
2 144 6 
