P3
8 8
255
143 129 101 151 133 106 158 135 109 152 123 98 144 115 88 155 128 100 
164 142 111 158 139 107 145 133 101 149 133 102 158 136 106 159 132 102 
155 126 96 160 134 102 163 142 107 154 137 100 146 126 104 154 129 105 
160 130 102 166 130 99 174 136 104 178 141 112 169 135 109 155 124 101 
144 125 101 149 126 99 157 127 97 165 131 98 171 135 102 168 133 102 
153 121 94 138 109 85 146 128 101 152 130 101 164 137 104 176 145 110 
178 145 110 167 136 104 151 124 96 141 117 92 126 110 82 139 120 90 159 134 101 
170 141 107 163 134 101 149 122 92 143 121 95 146 127 104 112 97 73 136 118 92 
160 138 109 162 136 106 143 117 89 128 106 82 135 117 98 150 136 120 
109 93 76 140 122 104 164 142 121 153 128 107 124 101 82 112 92 78 123 109 100 
139 129 123 
