P3
8 8
255
28 127 10 38 119 16 45 128 22 45 133 20 45 129 15 41 130 20 33 134 28 
23 127 6 34 118 7 44 110 13 44 120 20 37 126 16 35 121 10 38 117 10 37 115 13 
20 142 8 39 118 11 48 109 16 42 117 22 27 123 16 26 120 10 34 116 6 39 115 7 
13 155 7 35 124 14 41 117 19 34 118 22 23 118 16 24 120 12 31 128 12 32 138 12 
11 165 9 29 126 13 35 122 17 34 119 18 33 111 12 34 116 8 30 139 12 17 161 14 
13 167 9 35 128 13 38 131 16 41 129 19 43 118 13 46 123 11 33 146 12 10 170 10 
13 165 5 37 135 14 36 143 14 33 146 15 34 140 14 37 142 13 26 158 10 5 172 4 
9 164 0 30 139 12 24 147 7 11 155 8 8 156 10 14 158 11 11 165 7 0 170 0 
6 166 0 
