P3
8 8
255
81 138 121 69 145 98 46 144 83 21 139 42 23 144 38 30 134 39 33 133 45 
30 127 46 70 141 99 55 129 80 44 126 62 41 131 57 44 126 52 38 120 46 
41 119 44 42 123 44 46 137 70 37 131 57 32 131 48 33 138 46 37 129 52 
25 128 47 25 130 46 29 131 45 30 132 49 29 131 47 31 133 47 33 138 46 
33 127 49 19 131 47 16 136 47 25 135 48 34 126 51 36 128 53 38 128 54 
37 127 53 41 125 48 30 127 48 29 131 48 35 130 48 33 123 49 36 126 54 
38 125 54 35 122 53 44 128 50 39 126 48 40 124 46 41 126 45 24 127 38 
27 129 43 29 131 45 27 129 43 35 133 48 33 128 44 35 127 44 35 129 43 
24 127 38 25 129 40 27 133 41 27 137 42 29 132 43 23 132 41 26 132 42 
28 133 41 
