P3
9 8
255
78 102 42 81 111 49 80 115 49 78 116 41 76 113 35 74 111 31 73 107 30 
71 114 32 79 115 41 69 97 36 72 102 42 72 104 39 70 106 34 70 107 30 70 107 30 
70 106 32 61 108 30 69 105 33 72 101 43 72 99 44 69 97 38 67 96 32 67 98 30 
67 99 32 65 100 36 69 99 35 68 103 37 67 94 41 70 94 44 70 93 41 68 91 35 
64 89 31 56 85 27 52 82 28 60 74 23 57 88 29 70 101 33 81 106 41 86 104 44 
77 95 37 68 92 34 59 89 29 43 79 18 61 75 22 53 74 17 77 103 42 74 104 42 
76 108 45 78 108 46 86 110 50 89 109 50 84 99 42 83 97 44 73 94 37 65 85 32 
61 89 31 68 99 39 72 104 41 76 104 43 81 101 40 81 96 37 65 82 28 60 84 26 
51 83 20 57 87 25 68 96 35 68 96 35 62 92 30 58 92 31 59 95 33 66 87 31 
66 89 33 
