P3
8 8
255
1 135 2 3 139 3 0 145 2 1 139 2 0 130 0 4 133 4 6 136 4 4 129 0 3 141 2 
1 142 1 2 143 2 2 139 0 0 130 0 3 134 2 7 139 2 5 137 0 2 145 3 0 142 0 
3 135 0 6 136 2 2 129 0 3 133 1 5 142 3 7 146 5 0 143 1 0 141 0 6 132 0 
10 134 4 5 128 1 3 130 0 1 136 0 1 142 2 0 140 0 0 141 0 5 130 0 8 131 6 
4 127 3 4 129 3 0 131 0 0 132 0 0 138 0 4 142 3 0 129 0 2 128 3 1 123 2 
6 130 6 5 132 1 0 128 0 1 139 0 5 136 6 1 133 0 5 129 0 11 139 2 9 148 7 
1 140 0 2 128 0 1 139 0 3 137 4 0 139 0 3 133 0 9 139 3 6 144 5 1 138 0 
6 128 0 
