P3
8 8
255
63 105 33 66 103 34 71 103 38 74 100 39 80 101 42 82 106 44 77 108 41 
68 110 38 77 108 32 75 109 35 71 104 33 67 103 33 66 101 35 69 101 38 
71 101 41 67 95 36 40 129 21 61 116 25 54 106 21 58 107 28 59 102 31 60 99 34 
69 100 40 65 93 34 17 141 7 31 130 14 31 116 12 50 115 25 58 104 29 64 99 33 
72 104 41 63 102 35 19 148 4 11 145 10 18 129 9 47 121 26 62 104 30 67 93 30 
73 104 37 61 107 34 9 154 0 13 141 5 26 134 14 45 122 26 60 108 34 65 100 36 
62 99 32 56 102 27 14 154 5 16 145 1 26 142 9 40 135 19 49 126 24 52 119 26 
50 117 24 45 119 20 41 152 14 25 158 5 31 159 10 37 159 16 41 155 18 39 149 18 
37 146 17 36 147 17 
