P3
8 8
255
64 90 29 65 94 30 71 108 39 74 115 45 69 109 39 67 104 37 68 99 39 66 91 34 
61 85 25 60 90 26 62 99 30 63 104 34 60 105 36 59 100 34 57 91 31 52 83 26 
48 97 32 45 95 26 49 88 21 58 90 23 64 101 32 62 101 36 50 88 27 36 82 20 
26 141 20 51 101 28 52 78 30 44 86 23 51 88 19 54 82 23 46 80 29 44 81 30 
17 135 0 24 117 13 36 92 21 47 78 18 48 77 19 48 76 27 46 75 27 42 77 19 
21 136 0 7 141 8 27 119 18 50 87 17 47 77 23 47 78 37 54 80 33 50 82 15 
30 136 4 16 148 13 22 141 15 39 114 13 43 93 22 48 84 40 59 85 37 60 91 21 
28 121 17 30 126 16 19 141 7 15 140 4 32 112 13 47 86 29 52 82 30 60 89 22 
