P3
8 8
255
57 97 24 63 105 29 60 109 28 40 105 23 55 109 33 63 109 36 61 109 33 50 108 24 
71 100 33 69 107 34 70 108 35 47 102 21 61 107 32 70 108 35 65 103 28 
58 103 22 72 108 38 65 116 41 74 119 50 65 109 32 75 113 40 83 116 47 
77 111 37 76 117 38 41 81 10 38 88 15 60 99 34 56 100 25 60 100 29 70 105 37 
63 103 30 69 118 37 48 89 23 45 97 22 43 111 26 39 97 23 53 104 29 69 112 33 
65 108 29 63 116 36 49 92 21 52 96 19 52 104 21 63 95 22 76 110 34 76 119 37 
59 114 30 46 111 29 68 104 30 67 104 24 63 109 21 54 104 17 71 120 31 
72 118 30 62 109 28 52 105 27 63 111 25 53 112 18 41 120 15 60 119 29 
75 128 38 71 115 28 75 110 30 79 111 38 
