P3
8 8
255
60 119 29 43 122 30 47 111 27 57 110 30 64 118 43 29 154 2 6 167 11 35 131 23 
65 124 32 54 131 35 58 123 33 65 125 37 64 131 54 67 141 26 48 139 18 
56 132 34 25 125 11 15 135 12 20 130 9 21 135 13 46 145 39 83 127 42 46 118 16 
58 129 33 1 132 0 0 141 0 0 138 0 0 145 0 21 154 11 66 124 37 10 123 9 
38 126 14 3 133 0 0 139 0 3 134 0 0 143 0 20 155 3 70 123 35 40 124 28 
52 113 9 6 133 2 1 135 2 8 129 0 3 139 3 12 159 16 70 128 41 92 124 57 
66 110 21 7 130 3 3 128 2 5 132 1 9 140 2 21 146 8 77 129 54 91 138 34 
31 134 19 13 133 9 9 132 7 11 136 6 15 143 7 29 159 7 51 134 28 13 142 0 
10 150 17 
