P3
8 8
255
79 70 51 78 69 49 119 111 88 118 110 84 105 97 68 114 106 75 108 102 67 
125 118 82 94 80 58 91 77 53 129 115 89 123 109 80 118 105 72 138 126 89 
124 112 73 123 111 70 131 101 68 130 101 67 136 109 75 125 100 65 139 117 81 
150 131 94 128 110 72 135 118 80 169 140 106 168 141 106 170 144 109 
147 123 88 145 124 87 150 132 94 135 119 80 149 134 95 167 141 106 171 145 110 
177 153 117 152 130 94 141 122 84 145 128 90 140 125 86 158 145 106 
144 119 84 147 124 88 156 134 98 139 120 82 131 114 76 137 123 84 135 123 83 
148 137 97 149 127 91 140 119 83 139 120 83 126 110 71 124 110 71 134 122 82 
130 120 80 129 121 80 156 136 99 135 116 79 124 108 69 117 102 63 121 110 70 
136 127 86 130 123 82 117 111 69 
