P3
8 8
255
54 81 64 57 84 69 57 85 70 52 85 66 49 84 60 51 84 63 52 81 63 57 84 69 
57 79 66 60 84 70 58 86 71 52 85 68 52 86 62 51 85 61 51 80 60 57 84 67 
59 82 66 63 85 72 59 87 72 51 85 68 55 89 65 54 88 64 50 82 59 56 85 65 
57 84 67 60 84 70 57 86 68 52 85 66 56 90 66 56 90 66 51 85 61 53 87 63 
53 85 64 55 82 65 54 83 65 55 84 64 53 87 63 55 90 66 52 88 62 49 88 59 
50 85 63 52 81 61 53 80 61 56 83 64 50 84 60 55 90 66 50 89 62 48 89 59 
30 99 45 26 96 42 27 97 45 27 100 47 21 94 41 25 98 45 25 95 43 22 90 39 
23 93 39 21 91 37 22 95 40 22 95 42 20 97 41 23 100 44 23 98 42 19 94 38 
