P3
8 8
255
31 114 46 25 112 43 19 109 35 25 113 37 34 116 44 28 102 41 21 90 36 16 94 34 
29 108 42 29 112 44 26 112 39 31 115 40 37 114 44 38 106 47 28 90 39 18 96 36 
32 108 44 30 111 44 31 114 44 39 121 47 42 117 50 45 113 54 29 91 42 19 97 35 
28 104 40 23 106 38 24 110 39 32 115 43 30 110 41 39 108 51 23 87 37 18 97 32 
25 104 39 21 106 39 23 110 39 26 114 40 24 105 36 37 111 52 26 94 43 17 96 31 
23 108 41 21 103 37 21 107 36 22 110 34 29 112 40 36 110 47 28 95 41 16 94 34 
30 109 44 27 103 39 25 104 38 26 108 36 33 110 42 39 109 49 33 93 42 14 92 32 
29 100 40 28 98 38 31 101 39 34 106 42 42 112 49 52 115 60 46 102 53 13 91 31 
