P3
8 8
255
103 80 51 149 122 91 169 142 111 141 117 89 115 97 71 115 100 77 159 132 97 
175 150 118 115 88 57 157 127 93 170 140 106 143 116 85 131 108 81 145 125 100 
168 132 93 177 145 109 172 149 101 183 161 113 179 158 114 157 135 99 
139 117 89 136 113 92 162 136 98 172 146 108 178 154 108 186 163 114 
185 162 115 171 148 107 158 134 100 154 130 101 154 126 84 162 134 91 
179 153 110 180 155 106 176 152 102 169 144 96 161 135 92 156 130 90 
163 134 85 167 137 90 177 153 113 181 158 110 176 152 100 173 149 97 
173 148 98 171 146 98 181 153 103 185 157 108 169 151 113 178 160 114 
169 150 100 166 145 94 169 147 98 172 149 102 169 145 102 180 155 112 
158 149 114 168 158 116 156 144 99 149 135 90 153 136 95 159 140 102 
125 107 78 136 116 87 
