P3
8 8
255
140 153 73 194 198 173 250 255 232 208 212 135 126 154 79 177 197 160 
203 189 162 221 215 193 139 169 57 190 200 129 246 255 193 204 216 118 
174 195 102 182 197 116 147 150 63 197 196 132 125 160 58 127 148 27 
178 194 105 209 233 139 219 232 150 169 181 79 114 132 20 186 184 133 
84 113 47 68 91 13 58 76 28 73 105 58 171 176 135 156 168 70 99 135 11 
175 181 137 76 98 36 50 75 45 25 49 27 5 51 14 137 144 103 144 161 49 
90 145 0 188 204 139 64 87 0 44 79 25 27 63 0 22 85 0 112 126 47 118 140 6 
87 152 0 141 165 91 13 51 0 34 79 10 29 74 17 38 63 41 52 68 19 71 116 0 
68 141 23 74 124 53 46 83 39 45 85 22 32 73 17 23 49 22 55 76 17 46 83 29 
8 65 12 42 87 0 
