P3
8 8
255
225 235 208 248 255 232 195 203 179 209 214 192 219 222 203 224 227 208 
255 255 239 235 236 218 233 239 227 231 237 227 215 218 209 220 223 214 
244 247 238 242 245 234 230 232 221 254 255 243 244 247 230 234 238 223 
217 221 206 232 236 221 244 248 231 230 235 215 237 245 222 237 245 221 
249 253 228 221 225 202 223 228 208 234 238 221 231 238 220 223 230 212 
241 249 228 242 252 228 213 218 196 218 222 205 238 241 230 236 241 235 
241 245 244 243 247 248 239 243 244 220 224 225 171 183 145 185 196 164 
236 246 221 242 249 233 207 213 203 215 218 211 243 246 239 237 238 232 
184 204 151 114 132 84 184 199 158 242 253 219 220 226 198 230 235 205 
228 231 200 220 221 189 218 241 197 160 181 140 160 175 142 211 222 192 
198 204 176 212 215 186 240 239 208 204 204 168 
