P3
8 8
255
232 235 190 232 232 196 201 201 149 226 219 175 230 224 172 145 150 83 
56 70 21 71 95 47 217 226 161 199 203 153 202 204 154 216 212 183 234 230 203 
162 164 124 64 75 41 55 74 28 176 186 115 203 212 157 218 228 167 192 199 157 
213 220 187 188 196 155 92 102 65 57 71 10 152 162 102 117 126 73 121 138 58 
129 151 69 96 118 45 83 105 33 51 65 6 104 117 37 181 192 126 152 161 104 
48 67 0 93 121 19 82 117 17 50 80 0 62 78 16 103 114 35 183 196 106 
197 206 143 158 171 89 129 155 56 98 134 34 110 145 65 88 107 62 65 76 18 
177 191 96 205 209 148 158 166 83 132 157 40 129 170 42 112 154 54 75 101 56 
56 71 30 202 211 132 222 222 170 133 139 49 121 149 2 121 169 0 97 148 11 
87 117 57 56 74 32 
