P3
8 8
255
49 84 18 117 140 122 168 190 169 108 137 107 46 88 38 119 165 103 132 165 138 
150 174 150 49 86 35 117 145 105 209 233 183 127 156 90 112 149 72 191 226 170 
202 225 207 239 253 238 40 81 41 164 197 142 241 255 222 170 185 142 
172 192 139 214 228 213 193 201 204 222 225 216 16 62 25 126 162 101 
229 241 231 242 245 234 239 246 213 244 244 252 235 232 243 224 220 208 
50 98 56 92 130 73 224 235 231 244 248 233 200 208 159 194 196 182 244 243 239 
211 205 189 35 85 34 155 190 148 221 235 235 217 223 219 200 214 179 
213 225 205 233 239 227 152 156 129 44 91 39 187 220 189 160 182 161 
153 171 155 183 206 186 229 252 234 218 236 224 126 142 106 44 87 44 76 110 77 
69 103 29 65 99 25 43 80 26 71 106 66 100 127 112 57 78 45 
