P3
8 8
255
113 135 50 174 193 75 211 222 102 188 192 107 146 165 24 185 199 101 
184 184 148 172 171 107 133 167 47 152 175 67 154 167 51 213 212 130 
187 187 89 159 162 83 188 193 135 185 196 136 111 125 74 87 102 59 84 106 5 
168 180 78 216 220 107 178 180 79 182 191 112 204 219 164 92 91 26 52 64 24 
49 80 13 120 150 78 172 194 70 201 211 76 176 185 70 196 207 113 178 186 77 
130 147 92 23 56 0 71 99 58 102 121 42 165 172 79 150 153 72 226 231 173 
139 166 89 127 153 92 104 140 14 114 137 33 95 100 46 132 129 96 106 114 65 
129 143 107 115 157 57 58 92 0 111 145 0 119 141 17 148 158 87 176 185 132 
124 141 61 132 156 60 123 164 32 83 113 15 150 174 90 110 128 78 91 120 30 
183 209 122 153 165 101 126 128 65 
