P3
8 8
255
51 70 38 152 170 120 201 216 151 187 198 138 144 156 80 167 180 100 
179 186 142 72 88 39 49 82 27 132 152 81 165 187 104 214 220 158 240 221 191 
236 214 191 219 214 176 93 137 78 42 74 7 52 75 5 98 128 40 201 224 134 
220 227 150 199 204 140 179 198 134 140 148 99 85 107 34 151 166 99 139 163 85 
95 120 26 94 105 11 153 164 85 165 188 120 94 116 43 129 142 52 213 221 138 
182 195 123 180 189 122 201 193 130 168 157 103 193 192 148 75 114 21 
127 156 28 148 173 43 161 188 95 192 205 152 207 195 155 205 188 145 
209 202 160 200 222 137 123 179 28 113 171 0 129 185 60 186 226 153 
197 213 150 201 208 138 165 181 110 106 141 57 65 119 0 112 172 24 87 155 36 
106 163 68 174 213 106 144 177 64 98 136 37 107 150 78 
