P3
8 8
255
173 185 119 233 234 202 224 226 189 242 245 228 241 254 201 158 178 91 
86 114 1 78 112 17 184 194 131 237 239 202 227 230 185 238 242 217 217 231 170 
110 149 40 100 141 23 51 86 2 152 158 96 194 193 163 219 222 191 146 157 114 
115 137 55 70 116 7 54 95 0 72 105 36 171 172 130 187 186 156 203 210 179 
85 103 41 70 96 23 56 88 13 95 120 62 146 167 110 247 240 230 225 228 185 
227 239 189 191 215 139 163 188 146 176 191 150 220 231 201 228 241 187 
189 192 135 155 160 96 157 149 102 138 140 65 118 136 78 149 153 102 
249 248 227 216 217 199 194 201 131 174 178 127 215 209 177 213 214 157 
135 156 87 164 172 125 221 225 200 215 219 196 154 170 82 152 171 63 
173 182 75 133 140 70 120 139 83 182 195 142 218 227 196 240 245 225 
