P3
8 8
255
158 133 104 171 139 110 168 137 108 149 126 99 124 112 87 107 103 79 
90 91 69 98 94 71 127 109 82 154 130 99 162 138 104 146 130 95 126 119 84 
116 115 81 98 96 70 102 95 68 93 84 60 126 113 82 141 128 91 132 123 84 
121 119 78 120 122 82 118 115 86 119 111 82 72 72 53 102 99 71 120 117 82 
119 118 81 120 121 84 128 131 94 132 132 102 134 128 99 55 64 49 74 81 59 
88 94 67 95 99 71 105 108 82 116 118 94 118 123 95 124 124 97 45 61 50 
50 64 47 53 65 46 60 67 51 70 74 62 80 81 72 76 88 63 89 95 71 48 67 59 
41 59 46 35 49 36 37 46 38 45 48 46 50 50 52 40 56 33 56 67 45 44 69 57 
42 67 54 37 62 48 34 60 44 38 63 47 43 68 51 36 60 51 34 57 48 
