P3
8 8
255
202 238 166 201 219 177 177 188 156 204 206 182 200 199 168 159 165 117 
165 185 122 65 100 34 87 123 59 200 214 165 210 220 186 163 168 148 
183 188 168 189 198 167 213 230 188 172 195 151 41 69 29 184 196 134 
202 213 170 221 231 206 209 221 201 215 228 200 208 222 187 211 225 189 
121 136 105 173 186 116 160 173 119 202 216 180 217 232 201 225 239 203 
214 225 182 226 233 189 198 205 164 168 184 119 127 141 88 164 179 140 
168 180 142 134 146 98 167 176 121 116 121 67 182 185 142 176 195 150 
197 213 176 203 214 182 216 224 185 131 138 86 115 121 59 125 129 70 
226 227 195 197 217 190 198 213 192 206 215 194 191 195 162 186 188 138 
216 217 157 215 216 159 181 187 175 187 193 145 141 152 84 134 150 62 
121 139 57 189 203 144 218 226 189 229 233 206 
