P3
8 8
255
194 216 195 172 206 189 171 206 182 189 207 183 185 197 175 187 206 184 
187 213 168 166 178 154 168 186 170 153 185 170 139 168 148 160 173 153 
171 180 161 186 205 186 198 208 156 223 227 192 175 193 181 171 199 185 
166 191 170 195 204 183 224 231 213 157 175 159 202 206 191 220 221 216 
198 215 205 179 206 189 185 209 185 194 202 178 230 237 219 142 160 146 
162 187 181 196 205 214 188 205 197 144 169 150 202 225 197 219 228 201 
213 217 200 177 195 183 133 187 135 191 218 187 208 232 206 150 174 148 
201 210 181 205 199 165 200 191 148 220 217 166 189 199 147 213 225 185 
179 193 167 179 200 167 211 236 197 204 221 179 237 240 197 230 223 179 
230 232 169 197 204 150 209 220 186 192 215 173 165 205 153 175 215 163 
164 183 138 159 157 119 107 137 83 129 166 96 
