P3
8 8
255
71 108 38 51 94 25 56 121 1 73 124 23 129 143 58 143 135 89 220 214 162 
210 210 160 53 83 0 62 102 16 109 164 47 78 115 20 130 142 78 135 124 96 
190 185 130 142 145 78 123 157 62 100 145 50 113 151 68 131 137 77 177 162 141 
178 172 148 167 164 109 131 127 56 188 169 113 134 132 58 168 169 125 
177 175 116 203 210 176 232 226 192 214 204 153 207 190 138 142 125 95 
141 144 75 168 162 130 154 134 61 157 147 85 152 135 91 197 176 131 
152 126 93 155 129 106 198 171 118 161 146 115 163 151 111 178 154 106 
199 178 147 169 161 112 190 181 124 165 152 108 207 204 111 192 198 126 
139 133 73 201 167 129 212 177 137 137 127 78 173 181 121 77 81 44 115 149 0 
127 169 33 213 220 152 213 177 141 216 176 124 220 205 162 151 158 107 
