P3
8 8
255
231 215 163 212 207 169 205 192 160 220 219 165 201 206 148 151 165 90 
120 143 52 128 151 71 255 238 220 229 221 156 221 204 132 207 196 142 
214 211 168 188 209 134 86 127 0 105 151 17 250 255 207 177 185 128 
203 216 144 174 189 106 151 164 95 213 223 171 195 204 159 187 199 137 
214 216 141 189 193 119 212 219 149 199 213 136 106 124 22 192 209 117 
211 221 169 231 241 188 190 190 90 216 220 109 164 175 57 198 210 134 
180 198 88 147 165 53 167 181 106 153 164 104 190 188 137 194 200 114 
168 186 66 211 221 148 209 220 141 158 173 80 165 183 84 151 165 90 166 175 118 
162 178 89 110 137 20 144 149 95 179 183 132 195 205 136 130 144 56 126 139 69 
153 176 59 149 175 52 134 165 45 158 159 117 223 226 171 193 202 139 
136 146 86 73 86 32 
