P3
8 8
255
85 137 37 100 152 25 90 144 0 63 107 12 63 111 1 85 141 6 77 130 16 66 107 28 
90 137 31 98 153 33 84 146 19 69 118 3 46 120 5 92 147 46 86 127 35 90 150 54 
87 139 28 100 153 49 127 182 81 119 158 43 105 165 52 120 163 55 115 150 30 
110 160 39 67 121 25 96 148 48 101 154 38 93 153 40 84 158 43 96 162 38 
84 146 3 116 185 42 53 110 13 62 110 36 49 92 12 22 95 5 60 139 30 57 135 15 
83 154 36 83 157 36 36 90 6 40 84 23 44 83 16 35 88 34 50 103 15 37 90 0 
35 83 23 96 137 71 27 71 12 47 87 27 39 80 4 9 64 22 46 91 24 22 73 4 32 80 40 
34 70 24 48 86 29 61 97 53 45 80 40 20 88 27 30 73 20 34 88 28 44 106 33 
43 85 13 
