P3
8 8
255
134 169 87 111 159 57 119 120 62 113 131 49 163 180 88 189 188 121 238 235 204 
195 208 190 212 200 140 157 198 119 108 99 56 130 135 79 166 171 113 
207 199 160 227 221 205 203 216 206 164 174 113 171 153 115 130 129 83 
167 176 131 196 204 165 218 210 187 244 238 222 195 208 190 170 195 129 
201 183 145 106 118 56 162 183 127 194 209 170 219 215 188 201 196 166 
219 229 192 220 212 165 223 206 163 165 178 135 215 218 149 181 182 116 
179 189 154 133 145 105 152 161 80 218 221 190 212 206 184 181 187 153 
196 193 142 196 196 144 167 183 146 87 108 65 118 131 62 209 224 201 
224 230 220 207 203 165 139 131 85 209 212 159 126 154 93 50 85 17 160 183 113 
210 233 189 224 237 209 216 207 150 177 164 111 136 141 75 97 133 43 101 149 50 
131 165 81 
