P3
8 8
255
226 229 218 217 223 209 241 248 230 220 228 207 224 229 223 208 211 204 
234 237 228 244 248 234 229 232 223 231 237 225 233 240 224 214 221 203 
232 235 228 239 240 235 231 230 225 209 209 197 241 244 233 239 245 231 
219 226 208 211 219 198 212 218 204 226 227 219 239 236 229 232 230 215 
237 241 227 240 247 229 232 240 219 232 240 216 229 242 216 234 241 223 
247 248 234 238 236 215 240 244 227 243 251 230 241 249 225 229 238 211 
217 234 198 225 235 210 228 229 211 217 213 188 247 250 231 254 255 234 
253 255 229 234 235 204 215 232 196 238 247 228 179 180 162 143 140 109 
244 247 228 222 224 202 217 220 193 250 253 222 248 252 217 199 204 181 
73 86 58 79 101 54 217 220 201 226 230 207 203 208 178 227 232 200 230 219 187 
96 100 73 53 79 42 61 105 44 
