P3
8 8
255
110 197 64 100 187 46 83 143 9 102 158 23 125 177 43 122 163 41 121 168 52 
146 180 59 98 170 45 96 148 14 143 169 46 133 184 53 136 186 53 180 196 89 
151 164 82 136 147 55 84 120 50 111 129 55 111 115 54 93 115 42 109 145 49 
126 134 51 164 136 88 170 155 88 63 79 32 76 96 43 87 101 65 75 73 32 98 120 37 
143 164 69 187 156 92 189 163 70 48 81 36 47 82 52 36 69 48 49 84 52 64 99 43 
78 113 33 105 140 46 170 168 91 61 95 58 46 84 43 71 117 44 46 89 17 57 92 52 
54 84 50 71 103 40 126 131 47 69 108 61 44 85 43 51 97 32 59 103 40 47 84 50 
54 89 47 66 103 25 131 144 62 56 98 48 52 96 45 32 78 32 45 88 42 38 82 21 
68 110 28 89 131 33 122 144 62 
