P3
8 8
255
158 160 123 185 185 115 154 167 53 170 170 58 148 143 75 177 184 132 
225 224 160 202 188 141 197 196 139 216 210 184 210 204 146 161 140 77 
163 156 110 182 202 149 166 168 95 146 146 58 168 170 105 232 224 213 
220 226 188 180 163 111 169 144 88 127 138 72 67 82 13 77 96 17 226 237 194 
228 236 215 223 219 194 203 203 167 191 211 162 101 130 74 67 92 37 62 95 38 
175 193 133 166 172 138 216 210 176 234 229 191 219 233 184 197 217 164 
199 216 164 95 119 67 158 173 114 151 155 105 242 230 190 212 200 162 
172 175 130 166 176 124 200 204 153 118 128 76 211 217 169 180 183 128 
243 228 187 206 187 155 188 184 146 169 169 119 179 172 117 131 129 70 
250 246 183 207 212 154 218 204 169 235 214 193 255 247 218 245 239 191 
236 222 159 164 154 83 
