P3
8 8
255
130 120 99 129 120 99 126 118 98 121 114 95 117 111 92 115 110 92 116 112 95 
118 114 97 133 120 101 132 119 100 131 119 101 131 120 102 128 119 102 
122 113 97 113 105 90 106 99 83 130 116 97 127 115 95 126 114 96 128 117 99 
129 119 102 123 114 98 112 104 89 103 95 80 121 112 91 117 108 87 114 106 86 
115 108 89 119 113 95 120 115 98 116 112 95 111 107 90 110 106 84 109 105 83 
108 106 84 111 109 89 115 114 94 116 116 97 113 114 96 110 111 93 103 103 79 
106 106 82 111 112 89 116 118 96 118 121 100 113 118 97 105 110 91 99 104 84 
97 98 89 98 99 86 106 107 88 117 118 94 120 119 95 112 110 89 103 99 82 
99 94 81 78 80 73 84 86 75 99 101 83 115 117 95 122 122 99 118 117 97 
115 112 97 115 111 100 
