P3
8 8
255
52 42 41 61 42 35 60 63 42 61 52 47 53 50 31 29 97 24 30 110 23 64 70 42 
56 48 45 60 46 37 55 54 34 55 46 37 51 62 32 32 104 28 33 105 23 66 72 44 
55 52 45 56 50 36 56 49 31 55 47 34 43 76 31 31 110 27 41 97 26 66 70 45 
51 51 41 51 54 37 64 52 36 60 58 37 34 90 25 27 110 22 50 88 31 63 65 43 
57 53 42 52 60 39 66 54 38 60 64 37 30 104 25 30 110 21 58 76 36 62 59 40 
65 55 43 59 64 44 60 51 36 51 65 32 30 115 24 38 108 22 60 64 41 62 57 38 
67 51 38 60 63 42 61 54 38 46 71 32 27 117 21 41 100 18 61 54 46 64 57 41 
62 42 31 59 58 38 64 61 46 51 79 39 24 114 16 39 90 13 63 49 49 66 57 42 
