P3
8 8
255
79 78 50 63 61 40 64 58 44 67 59 48 67 57 45 67 60 44 61 54 38 56 50 36 
82 81 51 64 59 37 62 56 40 64 56 43 61 53 40 63 56 40 61 54 38 58 50 37 
81 77 48 62 57 35 66 59 43 69 61 50 59 51 38 57 50 34 57 49 36 56 48 37 
83 78 49 61 55 33 65 57 44 71 63 52 64 54 42 61 51 39 58 48 38 54 44 35 
92 85 59 60 52 33 57 47 35 64 54 44 61 51 41 64 54 42 65 52 43 58 45 37 
78 81 52 59 54 34 59 49 37 65 55 45 66 58 47 65 59 45 60 52 39 60 47 38 
86 89 60 65 60 40 60 50 38 62 52 42 60 52 41 60 54 40 57 49 36 58 45 36 
89 92 63 68 63 43 62 52 40 62 52 42 60 52 41 61 55 41 60 52 39 63 50 41 
