P3
8 8
255
129 107 70 134 122 82 135 123 83 137 124 82 138 123 82 136 121 80 133 120 78 
132 119 77 124 121 78 135 121 82 135 121 82 137 122 81 140 122 82 139 121 81 
134 119 78 136 121 78 125 120 78 132 119 77 131 116 75 133 118 77 139 121 81 
139 121 81 134 119 76 137 122 79 137 111 74 127 115 73 124 112 70 128 115 73 
133 120 78 134 121 79 132 121 76 135 124 79 140 118 77 123 116 70 120 113 67 
123 114 71 128 119 76 131 122 79 129 122 76 129 125 77 127 131 80 127 121 73 
124 117 71 123 116 72 126 119 77 129 122 78 129 125 78 129 127 78 124 126 76 
136 125 79 132 121 76 127 115 73 126 114 74 128 119 76 132 125 79 131 128 77 
137 114 70 142 128 81 138 124 79 130 115 74 125 110 71 129 115 76 135 124 79 
133 125 76 
