P3
8 8
255
15 111 11 12 110 9 13 109 11 15 111 13 19 113 16 15 118 13 24 109 16 37 99 22 
17 113 13 14 110 12 17 108 13 20 109 17 22 111 19 32 100 23 39 89 26 55 78 34 
19 115 15 17 111 15 19 108 16 20 106 17 21 105 19 53 76 30 55 66 32 62 59 40 
19 106 11 17 109 10 28 108 19 43 96 24 52 81 25 65 60 40 65 60 41 63 60 41 
28 103 20 39 96 25 51 88 36 59 76 42 60 65 43 57 61 38 61 65 42 63 65 44 
44 94 33 61 82 41 71 71 45 69 63 49 63 58 52 52 65 37 60 70 43 64 69 46 
61 76 43 69 72 45 67 65 40 61 64 37 56 65 38 56 66 39 59 68 41 62 67 44 
69 62 44 66 66 42 57 67 33 56 66 31 60 67 33 62 64 40 58 60 36 60 60 36 
