P3
8 8
255
148 122 82 156 126 80 151 127 88 120 107 76 71 69 47 38 47 32 35 51 39 
39 58 47 131 111 70 146 119 63 152 129 80 140 124 86 100 93 67 58 60 43 
38 48 36 38 53 43 140 126 85 158 137 78 158 139 88 153 137 99 130 120 94 
87 85 68 47 54 42 34 49 37 148 140 98 174 162 107 159 146 99 147 134 99 
133 123 101 100 98 83 57 65 52 34 52 38 141 138 95 158 153 107 131 124 85 
104 95 67 92 84 67 82 82 69 63 74 61 42 66 48 137 136 93 124 124 85 92 89 56 
56 50 27 44 38 24 55 57 45 64 78 64 51 79 59 73 90 56 62 84 68 43 65 50 
38 59 44 41 62 47 42 64 49 54 75 60 60 81 66 53 70 42 51 72 57 37 59 43 
34 56 41 38 60 44 39 61 45 48 70 55 54 76 60 
