P3
8 8
255
55 102 34 65 68 39 64 58 42 62 65 44 64 66 42 62 61 40 58 59 41 60 58 35 
46 99 31 56 65 34 58 56 41 60 63 42 61 63 39 61 59 38 62 59 44 59 63 38 
45 96 29 56 62 34 58 55 40 60 63 44 61 63 39 62 60 39 65 63 48 61 70 43 
52 97 32 62 62 34 61 55 41 60 63 42 59 63 38 58 60 38 61 64 47 55 68 40 
53 95 29 63 63 35 62 56 40 61 64 43 60 66 38 59 63 38 58 66 45 53 67 41 
46 99 27 59 69 35 59 61 40 60 68 44 62 71 40 60 64 39 57 62 40 52 66 40 
43 107 29 57 78 39 58 66 43 59 72 44 62 71 40 58 62 35 52 55 34 48 61 35 
42 110 27 62 80 40 65 64 43 57 70 42 53 79 42 51 72 39 48 58 33 56 54 31 
