P3
8 8
255
32 27 21 35 30 26 59 54 48 98 93 55 82 114 49 81 126 43 100 129 47 94 126 50 
26 25 20 35 32 25 68 66 51 89 113 55 90 125 59 92 129 59 98 130 57 79 120 42 
36 39 32 29 29 17 58 60 38 69 116 46 85 121 59 92 120 62 90 127 60 70 123 43 
58 75 33 54 77 33 64 91 48 79 105 42 83 124 58 87 126 61 88 125 58 68 118 45 
67 111 50 63 114 48 67 119 53 83 118 50 82 132 59 85 128 57 82 123 53 
62 118 43 83 124 54 79 122 50 71 117 42 84 120 48 82 128 55 88 121 52 
89 118 52 73 119 47 109 134 66 105 130 62 99 122 54 106 133 64 106 139 70 
114 130 67 119 127 68 101 126 61 85 122 53 85 117 52 81 111 49 86 123 53 
93 130 60 107 126 62 119 129 68 106 133 66 
