P3
8 8
255
28 101 19 64 104 34 99 106 52 110 108 60 112 110 62 111 109 60 115 111 63 
120 117 66 36 101 19 72 103 36 105 108 55 115 114 66 116 114 66 116 114 65 
120 116 68 125 119 69 52 103 26 83 103 40 109 107 56 113 112 64 115 113 65 
119 117 68 122 118 70 124 118 68 73 106 37 95 106 48 112 109 58 109 107 58 
113 111 62 119 115 68 120 114 66 118 110 61 86 104 42 102 105 52 112 108 60 
110 106 58 117 113 65 121 114 68 117 109 63 114 106 59 100 103 48 106 102 54 
107 104 59 115 109 59 126 118 71 123 115 69 114 105 62 114 106 60 110 107 54 
110 103 57 105 104 58 116 108 59 127 119 72 121 113 67 110 101 58 116 104 62 
118 107 61 116 114 63 110 109 55 116 113 62 118 114 66 115 108 64 108 101 57 
113 105 59 
