P3
8 8
255
121 114 70 97 92 52 106 101 61 102 97 57 118 113 71 126 122 77 131 124 80 
125 118 74 116 108 59 95 89 53 102 97 59 107 102 60 112 108 63 126 122 75 
116 112 67 126 119 77 119 111 62 103 99 62 100 96 58 102 97 57 112 108 63 
126 122 77 113 109 64 118 113 71 124 120 73 119 117 78 100 96 58 80 77 36 
101 96 56 111 106 64 119 114 72 121 116 74 113 112 68 101 100 56 91 89 48 
88 84 46 113 107 71 119 111 74 124 119 79 121 117 72 92 93 53 95 97 50 
96 94 53 110 106 69 115 109 75 116 107 74 112 107 67 125 123 75 103 101 52 
115 109 61 124 113 67 128 115 71 121 113 67 112 111 63 113 112 66 119 107 65 
108 110 61 118 117 69 123 121 73 121 120 72 112 120 69 104 122 70 104 127 73 
110 127 75 
