P3
8 8
255
59 97 40 60 93 36 57 92 34 53 93 31 52 96 33 53 97 34 55 97 33 52 108 33 
62 95 42 62 92 40 58 88 36 56 89 34 57 92 36 58 93 37 58 93 35 41 104 25 
60 94 43 59 92 39 56 89 36 58 88 36 60 90 38 58 91 38 53 90 36 25 105 18 
56 93 39 55 92 38 56 91 37 59 89 37 60 90 38 54 91 37 49 90 34 16 110 16 
58 93 37 55 94 37 55 93 36 61 91 37 61 91 37 54 92 35 46 91 32 18 112 16 
60 95 37 56 96 36 57 95 38 62 92 38 63 93 39 55 93 36 47 92 33 23 110 15 
42 100 24 58 96 35 64 92 43 60 89 41 56 93 41 56 95 38 52 90 29 35 93 19 
44 97 25 60 95 37 65 91 43 60 89 41 59 93 42 56 95 38 51 89 28 28 90 13 
