P3
8 8
255
71 89 99 67 85 96 76 94 98 76 94 99 75 94 98 71 91 95 66 88 91 65 87 90 
73 85 96 68 80 91 76 90 95 77 92 96 77 94 97 75 92 96 71 90 93 68 88 91 
77 84 91 71 77 84 71 83 87 74 87 91 77 91 94 77 92 95 74 91 93 72 90 92 
89 93 92 83 85 84 72 82 86 75 85 89 76 88 91 76 89 92 75 89 91 75 90 92 
109 110 101 104 104 94 83 91 94 81 90 93 78 88 90 74 85 87 72 85 86 76 89 91 
125 124 110 121 119 104 93 101 104 88 96 99 79 88 91 71 81 84 69 81 82 
76 88 90 124 115 100 124 114 99 111 110 101 90 89 85 88 86 89 91 90 96 
76 77 82 74 77 75 130 122 108 127 118 104 122 117 106 107 102 95 106 101 100 
108 103 105 97 94 95 96 95 91 
