P3
8 8
255
14 114 15 15 105 5 16 109 2 16 123 9 21 123 14 23 108 15 20 99 18 17 101 26 
17 106 16 16 101 8 14 105 9 16 118 18 25 116 21 40 98 21 52 86 25 57 86 30 
24 97 18 29 91 16 31 95 21 35 103 30 44 99 31 58 86 28 69 79 29 73 83 33 
34 93 25 49 84 26 62 80 32 67 84 40 67 82 39 62 80 32 51 84 27 40 95 28 
37 94 26 56 85 31 73 78 37 77 79 42 69 80 40 54 82 31 30 93 23 9 107 22 
31 98 21 45 91 26 55 88 31 52 89 35 47 91 32 40 91 25 26 97 17 10 107 14 
20 103 13 28 100 16 31 100 20 23 102 21 21 103 21 26 101 18 24 103 12 
15 107 8 15 107 8 20 104 10 19 104 11 10 107 12 8 108 12 16 107 11 16 108 7 
9 112 5 
