P3
8 8
255
26 100 25 49 90 34 56 86 34 58 86 35 52 91 34 52 93 35 60 88 37 63 87 37 
44 92 30 46 89 35 54 86 36 57 87 35 52 93 37 53 94 38 61 90 36 60 87 32 
63 83 34 53 85 35 60 84 36 59 85 37 53 90 38 55 92 38 63 90 37 58 89 30 
49 88 35 63 82 36 68 81 38 64 83 38 55 87 37 57 90 37 62 89 36 52 90 29 
55 85 35 65 81 36 68 81 37 64 83 38 56 85 37 57 87 37 63 87 35 51 91 29 
62 80 32 55 83 32 60 87 36 59 89 39 51 88 37 56 86 36 63 86 34 51 89 28 
36 88 26 46 87 29 52 91 36 53 93 40 48 91 38 54 86 36 64 84 35 53 88 30 
26 98 16 24 97 15 16 98 13 13 101 14 26 103 23 39 98 30 39 94 29 27 97 25 
