P3
8 8
255
115 124 71 113 128 71 109 129 66 108 131 63 106 132 59 113 127 65 111 129 67 
106 130 68 115 129 68 112 130 68 109 129 66 109 129 66 106 124 62 108 129 64 
107 132 66 101 127 64 113 127 66 113 129 67 111 127 65 111 127 65 110 124 63 
104 126 61 103 128 62 97 123 60 107 125 63 107 125 63 104 122 60 107 121 60 
106 120 59 99 124 58 98 124 59 94 120 57 103 125 60 100 125 59 97 122 57 
96 121 56 98 120 56 101 123 58 101 123 59 100 120 59 97 126 59 96 129 60 
92 128 58 90 125 57 92 127 59 106 127 62 104 124 61 105 120 61 93 124 54 
94 130 60 94 130 60 92 127 59 95 130 62 107 129 64 104 124 61 106 120 59 
91 122 52 99 128 61 102 129 62 101 123 59 104 124 61 100 129 63 98 124 59 
103 123 60 
