P3
8 8
255
30 111 19 12 108 8 13 112 19 17 113 16 20 112 13 17 109 10 12 106 10 17 106 14 
24 109 18 20 103 13 28 91 20 26 95 15 25 101 11 21 108 11 15 109 12 13 107 11 
31 89 13 48 73 16 48 71 29 40 78 21 32 93 15 25 109 15 17 113 13 12 110 11 
28 89 22 54 69 30 61 63 39 47 73 28 34 92 18 24 111 16 15 116 14 9 109 10 
26 86 26 52 67 36 55 68 40 42 80 29 28 99 21 20 114 17 14 115 11 10 108 7 
25 86 17 44 71 28 38 80 30 31 93 26 22 111 21 19 120 18 17 115 14 17 108 12 
14 111 14 24 103 22 27 95 20 23 105 20 18 116 17 16 117 13 20 112 13 22 107 13 
12 112 0 18 106 4 21 102 10 18 110 11 12 115 8 11 109 6 17 104 7 23 104 12 
