P3
8 8
255
69 64 44 67 64 47 69 63 47 78 72 48 124 116 80 118 113 71 102 103 61 
91 97 59 63 61 40 65 62 45 66 63 46 74 68 42 120 112 75 121 114 70 107 104 61 
94 94 56 63 58 38 61 58 41 66 65 45 74 70 43 117 109 72 128 120 74 124 117 73 
105 100 62 66 59 41 62 59 42 68 67 49 76 72 45 119 111 74 135 124 79 
137 125 83 120 110 74 63 54 37 63 57 43 61 58 43 69 65 40 114 109 71 
125 113 71 125 113 73 123 110 75 67 55 41 67 61 47 59 56 41 64 62 37 117 111 75 
118 106 64 111 99 59 123 110 75 61 60 40 64 63 45 66 63 46 74 69 47 117 113 78 
120 113 71 120 111 68 127 115 73 57 56 38 67 64 47 70 67 50 72 66 44 106 100 66 
109 102 60 121 110 65 134 123 78 
