P3
8 8
255
86 83 67 92 80 64 122 96 75 195 153 123 241 186 146 229 166 120 251 181 151 
255 196 165 88 84 69 92 79 64 104 78 58 159 117 88 217 163 122 234 172 123 
235 165 131 244 180 145 103 96 79 102 87 73 99 72 53 140 100 70 205 153 110 
241 182 129 218 152 110 208 145 103 105 95 76 92 76 60 92 65 45 143 105 73 
213 164 119 250 194 140 245 182 135 242 180 133 97 84 61 79 61 40 93 66 41 
152 115 80 215 168 123 244 191 139 246 185 136 252 190 142 114 98 70 114 95 65 
133 108 73 169 134 95 200 155 112 213 162 116 240 180 133 238 176 131 
143 125 92 157 138 98 170 146 102 178 144 101 182 139 97 185 136 97 222 163 120 
232 169 128 151 133 96 159 141 95 165 142 92 168 135 89 173 131 91 181 132 98 
188 130 90 199 136 98 
