P3
8 8
255
65 100 44 64 99 45 59 96 42 61 94 41 64 94 42 61 90 42 60 95 41 56 97 37 
60 101 41 62 100 43 63 98 44 64 94 42 66 94 45 60 95 37 57 97 37 55 99 36 
60 98 37 63 98 42 63 95 45 65 93 45 68 91 47 58 98 35 58 98 36 57 97 37 
60 93 36 63 93 41 62 91 43 63 89 44 64 87 45 57 99 33 58 98 36 58 96 39 
63 99 37 60 90 38 50 75 35 53 69 42 56 65 48 59 78 50 66 74 50 67 76 47 
57 103 39 53 94 38 44 71 30 49 59 35 57 53 41 57 60 43 64 56 43 64 58 42 
50 110 40 48 98 37 42 68 29 52 53 35 65 47 45 67 52 49 73 49 49 71 52 48 
47 109 36 47 92 35 45 65 30 59 52 42 67 44 50 70 51 53 77 51 54 77 56 55 
