P3
8 8
255
159 133 96 145 115 79 132 97 76 140 109 80 153 127 87 153 135 88 129 117 73 
93 84 52 140 117 83 143 117 81 154 120 97 151 120 90 154 129 89 154 135 89 
132 118 75 99 89 56 129 111 80 138 117 83 159 126 100 154 124 92 157 132 92 
160 141 96 143 128 85 109 97 63 117 103 73 136 119 83 154 122 93 151 122 88 
153 128 88 158 137 94 154 137 96 132 118 83 104 91 60 142 126 87 162 133 99 
153 125 89 146 121 81 147 125 84 153 134 94 152 136 99 121 105 70 153 135 90 
169 141 103 158 131 93 149 124 85 147 125 85 148 127 88 147 129 91 155 135 96 
164 142 91 165 138 97 161 135 95 156 131 92 150 127 88 142 120 81 135 116 76 
171 148 106 171 145 91 162 136 94 163 137 96 156 131 92 143 119 81 136 113 75 
138 117 77 
