P3
8 8
255
126 124 90 133 129 93 135 129 90 136 128 87 140 131 88 144 134 90 139 135 99 
142 136 98 138 135 99 139 134 97 137 129 90 137 128 88 144 133 91 150 139 96 
143 140 104 143 139 102 137 134 97 140 135 96 143 135 96 146 136 95 149 137 96 
151 139 97 150 148 113 144 140 104 133 130 91 140 133 94 148 140 100 
153 142 102 151 138 98 147 134 93 144 142 108 135 132 96 126 135 96 133 138 94 
139 140 93 140 137 92 146 138 97 159 150 111 155 145 99 151 143 98 107 115 77 
123 128 84 134 135 88 135 131 86 137 130 88 147 138 99 161 153 107 153 146 102 
113 120 82 131 135 91 143 144 97 143 140 94 143 136 95 152 144 105 153 147 102 
144 139 96 116 120 83 128 130 87 135 135 89 133 130 85 134 128 86 144 137 97 
139 137 93 131 130 88 
