P3
8 8
255
146 126 92 161 139 103 168 146 107 164 141 97 156 133 95 145 120 91 146 120 97 
144 118 93 161 137 98 169 143 101 174 148 105 169 147 101 167 143 105 
153 128 101 147 121 101 142 116 95 170 142 100 169 140 95 172 143 96 
155 133 86 160 136 98 149 123 98 140 113 95 133 106 87 184 155 121 176 147 113 
170 142 108 150 124 90 151 128 96 145 127 98 138 122 94 120 105 76 172 144 110 
157 129 95 149 122 87 155 131 99 144 124 94 129 114 87 127 115 89 132 120 93 
153 127 92 129 103 68 116 91 56 124 104 76 104 87 61 80 68 44 83 74 51 
111 102 78 158 134 99 139 116 80 124 101 65 123 105 78 101 87 62 72 63 40 
65 58 37 90 84 62 167 146 110 162 142 105 153 132 95 148 129 101 134 119 93 
109 98 75 85 77 55 86 79 56 
