P3
8 8
255
122 113 83 89 77 62 81 68 50 108 92 72 140 123 103 124 110 92 85 76 63 
65 63 55 135 122 94 133 117 98 115 98 77 117 98 76 133 113 91 126 109 90 
100 90 76 79 76 67 115 106 85 148 133 115 149 131 111 145 125 103 140 119 96 
137 118 97 127 113 96 98 90 78 84 83 72 116 104 88 135 120 102 148 129 108 
152 130 106 155 133 110 146 128 108 114 101 85 66 72 67 77 68 55 95 82 66 
119 101 80 142 120 96 153 130 105 142 121 99 124 107 88 52 80 70 55 69 59 
61 72 66 70 74 72 75 74 74 90 84 82 117 108 100 132 124 108 52 80 70 55 73 62 
61 76 69 66 77 73 66 71 70 70 71 67 87 85 75 109 105 88 52 79 70 53 77 65 
57 80 70 60 80 74 57 73 68 53 64 58 60 67 55 87 90 72 
