P3
8 8
255
119 129 89 128 139 92 132 144 94 131 142 94 126 137 92 125 135 93 104 122 79 
83 101 66 123 131 87 124 133 82 131 140 85 134 144 90 133 142 91 136 145 96 
133 151 95 104 122 76 127 134 87 122 130 76 126 135 77 126 135 78 121 130 75 
123 131 79 122 141 77 93 112 60 126 135 86 122 131 81 118 126 76 120 127 76 
124 130 78 125 130 78 110 128 83 76 92 57 126 135 86 123 131 81 122 130 80 
125 132 81 124 131 80 120 126 75 99 116 74 68 85 52 128 137 87 125 133 83 
126 134 84 128 136 86 124 132 82 116 124 74 83 100 63 58 75 45 133 140 90 
129 136 86 127 136 86 128 137 87 122 132 83 115 125 76 67 85 54 50 67 41 
137 142 91 131 139 88 127 136 86 124 134 86 118 129 82 111 123 76 56 73 49 
45 62 41 
