P3
8 8
255
61 73 61 68 80 68 67 79 67 60 72 60 58 70 58 66 78 66 70 82 70 64 76 64 
61 73 61 68 80 68 67 79 67 61 73 61 60 72 60 54 66 54 62 74 62 65 77 65 
63 71 60 68 76 65 67 75 64 65 73 62 67 75 64 63 71 60 68 76 65 71 79 68 
66 74 63 69 77 66 69 77 66 70 78 67 75 83 72 72 79 71 70 77 69 70 78 67 
69 77 66 71 79 68 70 78 67 70 78 67 76 84 73 69 76 68 65 72 64 66 74 63 
64 76 64 65 77 65 62 74 62 60 72 60 64 76 64 60 72 62 59 71 61 64 76 64 
67 77 66 66 76 65 62 72 61 63 73 62 68 78 67 65 81 70 61 77 66 69 83 70 
69 79 68 68 78 67 64 74 63 63 73 62 66 76 65 70 73 62 66 72 60 72 78 66 
