P3
8 8
255
26 109 39 29 107 45 49 95 59 68 78 67 70 71 75 70 71 75 68 69 71 72 76 75 
21 107 34 25 106 40 48 94 57 71 79 68 67 68 70 68 70 69 67 69 66 74 76 73 
25 111 36 28 109 42 53 99 60 77 85 72 69 74 70 71 76 70 73 75 70 79 82 75 
25 112 34 29 108 42 55 100 59 80 86 72 73 78 71 75 80 73 73 79 69 76 82 72 
26 115 33 24 115 38 37 104 51 67 86 64 63 73 64 67 77 68 69 79 70 68 78 69 
28 117 37 23 114 37 35 102 49 63 83 58 64 71 63 68 75 67 70 77 69 68 75 67 
28 115 36 22 112 38 33 102 48 64 84 59 71 78 70 74 81 73 74 81 73 70 77 69 
24 111 33 23 111 37 35 104 50 66 89 61 70 75 68 72 77 70 70 75 68 66 71 64 
