P3
8 8
255
66 90 74 59 85 72 52 85 64 50 94 61 51 102 61 50 101 60 50 97 61 53 93 66 
66 89 73 62 88 75 51 84 65 46 89 59 49 99 61 49 101 62 50 100 63 53 96 68 
64 86 74 61 89 75 51 84 65 47 87 61 49 96 64 49 99 64 50 99 67 54 99 70 
59 85 74 60 89 71 56 85 67 54 87 68 53 91 68 52 92 66 52 95 67 52 97 66 
54 82 70 60 87 68 60 87 70 62 89 74 60 88 73 53 86 67 51 89 64 50 93 63 
58 82 68 63 88 69 63 88 69 63 86 68 60 85 66 56 83 64 54 86 65 56 89 68 
59 81 69 61 88 71 62 89 72 61 88 71 60 87 70 58 85 68 55 86 68 56 89 70 
61 81 72 58 86 71 60 87 72 61 88 73 60 87 72 59 86 71 57 85 70 56 87 71 
