P3
8 8
255
45 66 50 45 66 50 45 67 51 45 67 51 45 67 51 46 67 51 46 68 52 46 68 52 
44 66 50 44 66 50 44 66 50 44 66 50 45 67 50 45 67 51 45 67 51 45 67 51 
43 65 49 43 65 49 43 65 49 43 65 49 44 66 49 44 66 50 44 66 50 44 66 50 
42 64 48 42 64 48 43 64 48 43 65 49 43 65 49 43 65 49 44 65 49 44 65 49 
42 64 48 42 64 48 43 64 48 43 65 49 43 65 49 43 65 49 44 65 49 44 65 49 
43 65 49 43 65 49 43 65 49 43 65 49 44 66 49 44 66 50 44 66 50 44 66 50 
44 66 50 44 66 50 44 66 50 44 66 50 45 67 50 45 67 51 45 67 51 45 67 51 
45 66 50 45 66 50 45 67 51 45 67 51 45 67 51 46 67 51 46 68 52 46 68 52 
