P3
8 8
255
36 48 52 36 49 53 36 50 54 36 51 55 34 51 54 32 49 53 30 48 51 29 47 50 
33 47 52 33 47 53 34 48 54 34 49 55 33 49 55 32 48 55 30 47 54 29 47 53 
29 45 52 29 46 52 30 46 54 30 46 55 31 47 57 31 47 58 31 46 59 31 46 59 
28 48 52 28 47 53 28 47 54 28 46 55 29 46 57 30 46 60 31 46 61 32 46 63 
32 56 54 31 54 54 30 52 54 29 49 54 29 47 56 31 46 59 32 46 61 33 46 63 
39 69 57 37 66 56 34 60 54 32 54 53 31 50 53 31 48 55 33 47 58 34 46 59 
48 82 60 45 77 58 40 69 54 36 61 51 33 54 50 32 49 51 33 48 53 34 47 55 
54 90 62 50 84 59 44 75 54 38 65 50 35 56 48 33 51 48 34 48 50 34 47 51 
