P3
8 8
255
25 59 50 28 62 54 29 63 56 27 61 55 23 57 52 22 55 52 24 58 55 28 61 59 
35 69 57 36 70 59 36 70 59 34 68 58 30 64 56 28 61 54 27 61 54 27 61 55 
42 76 59 40 75 58 39 73 57 38 72 57 37 71 57 34 67 55 29 63 51 26 59 48 
39 72 52 36 70 50 35 69 49 37 70 52 39 72 56 38 71 55 32 65 50 27 59 45 
33 66 46 32 65 45 33 65 46 37 69 52 42 74 58 43 75 59 39 70 56 34 66 52 
34 64 48 34 65 49 36 66 52 40 70 56 43 73 61 45 75 64 44 73 63 42 72 62 
35 64 54 37 66 56 39 67 58 39 67 60 38 66 60 37 65 60 38 66 62 40 67 64 
35 63 56 37 65 59 38 66 61 35 62 59 30 57 54 27 54 53 29 55 55 32 58 59 
