P3
8 8
255
58 77 61 54 74 55 49 70 48 47 70 47 48 71 52 47 71 57 43 66 61 39 62 61 
68 86 79 62 81 71 56 77 62 54 76 58 52 75 58 46 70 58 35 59 53 26 50 48 
45 61 68 40 58 60 38 58 53 41 63 53 46 69 57 43 67 57 31 56 50 20 45 42 
22 39 55 18 36 47 18 37 40 26 48 43 37 61 53 41 66 58 34 59 53 24 50 47 
33 50 68 27 46 58 23 44 48 28 51 47 37 62 54 41 67 59 36 63 58 30 57 54 
39 59 68 34 55 60 31 54 51 32 57 49 36 63 53 39 66 58 36 64 61 33 61 60 
32 55 52 32 56 50 33 59 48 34 61 47 34 63 49 33 62 54 32 60 58 30 58 60 
37 61 49 40 66 51 43 70 52 42 70 51 36 65 50 29 58 50 24 53 52 22 50 54 
