P3
8 8
255
39 63 68 39 63 68 40 63 68 40 64 68 40 64 69 40 64 69 41 64 69 41 64 69 
40 64 69 40 64 69 40 64 69 41 64 69 41 64 69 41 65 70 41 65 70 41 65 70 
41 64 70 41 64 71 41 65 71 42 65 71 42 65 71 42 65 72 42 66 72 42 66 72 
42 65 72 42 65 72 42 65 73 42 65 73 42 66 73 43 66 73 43 66 74 43 66 74 
42 65 73 42 65 73 42 65 73 42 65 74 42 65 74 43 66 74 43 66 74 43 66 75 
41 64 74 41 64 74 41 64 74 42 64 74 42 65 74 42 65 75 42 65 75 42 65 75 
40 63 74 40 63 74 40 63 74 41 63 74 41 63 74 41 64 75 41 64 75 41 64 75 
39 62 73 39 62 73 40 62 73 40 63 74 40 63 74 40 63 74 41 63 74 41 63 74 
