P3
8 8
255
44 63 45 45 64 46 47 66 48 50 69 51 52 71 53 53 72 54 53 72 54 54 73 55 
48 67 49 49 68 50 50 70 51 51 71 52 51 71 53 50 70 52 49 68 50 48 68 49 
48 69 51 49 70 52 50 70 53 50 70 53 49 69 52 46 67 49 43 64 46 42 62 45 
41 62 46 42 63 47 44 65 48 45 66 49 44 66 49 43 64 47 40 62 45 39 60 44 
30 52 37 31 54 38 34 56 40 36 59 43 38 61 45 40 62 46 40 62 47 40 62 47 
26 49 34 26 50 35 28 51 36 30 53 39 33 56 42 36 60 45 39 62 48 41 64 49 
31 55 41 30 54 40 29 53 39 28 52 38 30 54 40 33 57 43 37 61 47 39 63 49 
39 63 49 36 60 46 32 56 42 29 54 40 29 53 39 31 56 42 34 59 45 37 61 47 
