P3
8 8
255
41 66 52 42 67 53 44 69 55 45 70 56 46 71 57 46 71 57 45 70 57 45 70 56 
42 67 54 43 68 55 44 69 56 46 71 57 46 71 57 46 71 57 45 70 57 45 70 56 
45 70 56 45 70 56 46 71 57 46 71 58 46 71 58 46 71 57 45 70 57 45 70 56 
46 71 58 46 71 58 46 71 58 46 71 58 46 71 57 46 71 57 45 70 57 45 70 56 
47 72 58 46 71 58 46 71 57 45 70 57 45 70 57 45 70 56 45 70 56 45 70 57 
45 70 57 45 70 56 44 69 56 44 69 55 44 69 55 44 69 56 45 70 56 46 71 57 
43 68 55 43 68 54 42 67 54 42 67 53 43 68 54 44 69 55 45 70 56 46 71 57 
42 67 53 42 67 53 41 66 52 41 66 52 42 67 53 43 68 55 45 70 56 46 71 58 
