P3
8 8
255
37 87 16 49 105 6 57 101 14 45 92 12 36 82 17 54 103 47 34 83 27 42 88 23 
39 83 20 58 110 10 61 114 0 56 107 12 41 93 19 47 100 30 68 122 44 32 85 5 
60 102 39 57 107 12 66 118 10 47 96 15 49 100 34 61 116 33 62 122 9 48 105 0 
68 107 42 74 118 29 64 111 5 64 109 42 24 65 31 41 88 46 50 103 25 66 118 20 
28 60 19 35 70 30 66 109 17 54 95 25 49 90 46 38 79 49 37 79 43 28 71 15 
53 91 16 27 63 1 26 57 15 54 94 24 43 88 0 40 88 2 29 72 18 43 78 48 60 115 32 
49 81 32 42 92 21 30 79 14 48 96 36 48 98 29 40 91 12 41 92 13 48 105 0 
60 95 13 32 77 18 31 75 24 49 92 47 48 92 41 38 83 24 37 83 21 
