P3
8 8
255
42 104 0 41 103 2 45 109 0 54 114 14 38 99 0 44 106 0 49 109 0 42 95 15 
39 101 0 56 113 19 55 114 6 54 110 19 45 104 12 62 126 3 62 126 12 50 109 25 
39 97 23 35 85 12 42 95 3 44 96 24 40 95 27 57 120 13 47 113 13 37 101 27 
44 129 10 49 102 10 31 86 2 26 86 12 28 94 23 24 95 19 27 101 12 32 109 3 
46 118 8 70 122 11 59 114 10 51 108 13 40 102 16 27 91 5 31 94 5 47 109 12 
57 115 13 62 115 0 59 113 2 55 111 10 58 114 23 43 98 15 36 87 10 48 94 21 
37 94 0 58 116 16 43 103 7 34 94 6 46 105 25 40 96 25 32 82 19 44 87 33 
27 91 0 46 111 21 37 103 15 32 100 15 40 109 28 39 106 29 37 99 26 39 94 26 
