P3
8 8
255
50 76 49 58 88 50 62 97 41 64 105 37 56 101 32 47 92 33 48 93 50 47 92 59 
45 82 49 53 91 52 57 95 44 64 104 44 63 103 43 58 95 44 58 92 55 53 86 55 
45 87 51 49 91 53 49 88 44 57 93 49 62 93 51 62 88 49 62 86 54 57 77 49 
53 89 53 55 90 57 50 84 51 53 84 53 55 84 54 57 84 53 60 85 55 53 78 46 
59 84 52 65 91 62 62 88 63 59 87 64 55 87 63 53 87 60 57 92 60 51 89 52 
49 74 44 61 86 57 61 90 62 58 91 64 54 90 62 49 90 58 51 95 60 44 90 53 
40 77 46 51 88 55 52 89 56 49 89 54 47 87 52 46 86 52 49 90 56 42 83 51 
42 94 58 49 99 62 45 93 53 43 88 47 44 85 45 48 86 49 53 88 56 47 80 51 
