P3
8 8
255
77 105 65 50 81 50 61 95 71 59 99 72 52 97 56 72 115 69 66 107 65 48 85 51 
74 99 69 58 87 59 65 98 71 74 111 77 85 124 80 86 125 81 69 103 68 65 95 69 
70 92 71 98 124 99 90 121 89 75 110 70 69 104 62 57 89 50 62 91 61 86 111 89 
90 113 95 65 91 66 57 88 54 62 97 57 69 104 64 66 95 64 61 86 57 79 102 76 
67 94 75 51 81 53 70 104 67 63 99 61 76 109 78 82 110 85 58 83 54 104 128 96 
65 97 74 83 118 86 75 113 76 42 79 46 69 103 79 102 131 111 82 108 79 
84 109 69 65 101 75 60 97 63 42 82 45 66 107 77 70 104 87 65 96 80 91 120 89 
74 101 56 70 96 71 72 100 77 65 97 76 81 116 96 43 81 58 41 78 47 98 132 95 
55 88 45 
