P3
8 8
255
46 69 55 44 67 53 42 66 51 44 68 52 47 71 54 48 72 54 47 71 52 44 68 48 
47 71 56 45 68 53 43 67 51 44 68 51 47 70 53 48 72 54 47 71 53 45 69 51 
49 73 56 47 70 54 44 68 51 44 68 51 46 69 53 47 71 54 47 71 54 47 70 53 
50 74 55 48 72 53 46 70 52 44 68 51 45 68 52 46 69 54 47 70 55 47 71 56 
49 73 52 48 73 52 47 71 52 45 69 52 44 67 51 44 67 53 45 68 55 46 69 57 
46 71 48 47 72 49 48 72 52 46 70 52 43 67 52 42 65 52 42 65 54 43 66 56 
43 68 43 46 71 47 48 73 51 47 71 53 43 67 52 40 63 51 39 62 52 40 62 54 
41 66 40 45 70 45 48 73 51 48 72 53 43 67 52 39 62 51 38 60 51 38 60 53 
