P3
8 8
255
24 89 7 21 100 11 30 88 29 30 92 19 16 80 0 24 89 0 39 101 18 46 100 24 
31 91 29 25 101 13 19 67 17 43 93 42 22 80 21 27 91 17 51 118 25 41 106 6 
18 71 27 16 85 4 35 83 0 22 72 1 10 66 5 31 94 23 42 111 22 48 115 18 
41 93 19 19 75 2 30 79 0 36 79 36 31 71 44 20 70 9 46 108 7 58 127 11 
27 81 6 22 78 3 35 79 28 32 79 11 29 78 12 36 85 30 32 88 17 53 117 7 25 79 4 
24 81 2 36 80 21 35 84 18 25 77 3 32 86 8 26 79 7 19 72 0 28 81 11 21 78 0 
30 74 0 28 77 12 21 78 7 22 80 0 47 98 21 42 87 28 29 79 18 25 75 2 55 97 25 
33 87 3 22 85 6 13 68 10 30 74 11 49 93 6 
