P3
8 8
255
23 53 0 59 94 38 37 78 20 22 65 9 26 69 13 26 67 11 33 72 17 45 83 36 25 59 42 
11 48 30 29 66 48 38 72 55 26 57 41 36 63 48 32 54 41 23 62 9 78 129 62 
78 129 60 68 118 49 49 91 25 49 85 21 72 101 37 67 91 29 35 74 11 62 114 32 
43 95 13 49 101 18 63 111 27 86 130 45 61 99 16 57 90 9 72 108 38 38 78 18 
26 70 7 34 83 17 39 90 21 59 109 38 36 83 11 58 104 32 71 105 31 33 71 12 
28 72 9 20 70 1 20 73 1 42 96 20 40 93 15 34 87 7 45 75 5 31 74 31 23 71 23 
19 69 18 34 85 29 39 87 29 48 93 34 51 92 32 70 96 33 19 73 23 21 75 23 
7 60 4 39 89 30 43 87 26 41 80 17 58 90 27 80 104 46 
