P3
8 8
255
46 98 26 22 81 17 32 92 30 28 89 29 38 99 42 36 93 38 27 80 28 40 86 37 
39 97 36 28 83 25 34 92 33 29 88 30 38 97 41 37 94 41 30 83 31 43 89 42 
23 87 26 34 87 31 25 80 23 32 90 32 27 86 28 28 85 30 38 91 39 37 84 38 
17 84 13 38 86 34 28 79 23 32 88 27 26 85 21 28 86 25 39 92 38 37 84 38 
28 92 16 37 84 30 41 91 32 29 84 17 38 95 26 40 97 29 33 87 27 43 93 42 
40 100 28 41 86 31 42 90 28 33 86 14 40 98 21 42 100 24 34 89 22 43 94 38 
46 101 34 44 87 31 33 79 15 38 92 17 34 91 10 36 95 15 43 99 28 35 86 29 
48 90 16 34 92 42 29 85 20 37 92 11 33 84 9 43 90 36 34 79 38 40 87 41 
