P3
8 8
255
53 87 26 52 91 28 61 98 46 50 86 40 49 86 32 67 107 37 73 113 40 61 100 37 
56 87 45 44 84 14 50 87 35 43 78 38 52 88 44 60 98 37 47 86 23 41 77 33 
42 71 40 50 85 27 49 81 40 33 63 37 42 72 46 49 80 46 35 67 30 42 72 48 
66 96 60 51 86 32 57 90 43 40 72 35 45 76 45 58 89 57 57 89 52 68 100 61 
44 76 29 34 71 4 51 87 23 47 82 24 60 94 43 64 98 48 47 82 24 53 91 18 
26 56 6 46 71 13 59 89 39 47 83 39 44 86 36 42 86 23 59 100 34 68 103 47 
47 74 41 55 85 25 58 88 38 46 78 37 46 81 39 57 95 46 62 98 50 42 76 39 
46 78 28 49 85 24 36 70 19 40 71 30 65 92 57 48 78 40 34 65 31 39 73 48 
