P3
8 8
255
69 95 58 82 106 80 98 122 106 77 101 87 61 90 62 74 105 64 77 107 69 77 107 73 
99 131 82 90 117 82 73 99 88 71 99 102 53 85 80 56 93 75 73 96 76 71 100 78 
88 118 84 101 127 98 87 112 93 55 83 69 61 94 75 53 91 66 85 110 89 91 120 98 
81 108 89 109 134 112 99 125 96 81 111 77 81 114 83 98 132 107 117 142 123 
98 127 105 90 117 102 95 120 99 82 108 71 104 133 89 125 156 124 77 108 90 
86 113 94 75 104 84 96 124 101 93 117 93 79 105 68 92 119 78 95 121 94 
63 89 78 73 102 84 84 113 93 111 141 105 74 99 67 76 100 66 110 134 102 
81 105 81 71 95 79 56 87 69 79 108 90 72 103 59 90 116 77 98 119 88 82 102 75 
89 113 81 88 114 75 91 124 105 61 90 72 
