P3
8 8
255
120 130 41 109 116 36 84 100 73 57 63 29 144 142 83 199 200 124 166 172 108 
127 142 83 117 127 40 106 109 52 89 100 66 82 96 47 64 77 24 147 153 93 
149 151 76 101 101 47 155 166 72 161 167 105 144 152 105 137 161 87 75 100 42 
91 103 53 105 104 37 103 91 51 170 184 73 164 173 94 140 144 109 125 146 79 
109 136 81 90 105 66 105 104 48 161 153 104 137 145 70 106 110 73 79 87 30 
101 116 47 88 106 48 88 99 57 107 113 69 141 145 94 95 97 60 75 75 67 122 134 60 
118 122 71 105 106 62 88 96 47 91 107 58 107 130 62 103 108 54 110 117 66 
113 120 78 78 68 69 102 87 80 125 126 82 106 131 63 105 144 38 143 138 38 
130 126 52 58 49 44 78 65 95 108 113 59 126 139 57 113 135 27 108 134 27 
