P3
8 8
255
72 121 32 40 84 25 38 79 35 64 102 19 82 129 13 75 122 6 75 111 39 69 98 52 
45 103 0 63 113 18 43 82 53 49 77 39 70 117 25 63 123 0 69 116 24 67 93 46 
76 127 24 90 137 45 81 122 66 60 98 57 48 99 42 57 119 36 82 136 40 58 90 15 
27 60 39 51 87 41 78 120 36 81 138 23 65 121 46 62 119 51 86 143 40 72 121 0 
28 55 40 24 53 25 36 70 10 50 105 0 60 107 26 40 84 25 50 101 24 64 121 18 
45 77 2 32 60 11 22 43 38 37 69 48 49 76 43 30 56 27 24 62 49 22 75 55 
62 95 40 45 80 47 7 45 30 72 117 78 37 78 36 32 64 23 38 63 33 64 86 65 
59 94 28 64 103 40 40 81 23 42 84 18 78 117 62 47 78 36 32 59 14 77 106 50 
