P3
8 8
255
67 119 34 62 105 36 59 102 31 66 109 37 65 109 30 54 99 14 60 107 15 71 119 20 
64 117 27 66 108 42 59 102 31 66 110 31 69 114 29 58 104 14 57 103 13 
66 112 24 62 115 23 69 111 45 62 106 31 67 113 25 71 118 22 67 114 18 
65 111 21 67 111 34 68 122 28 67 108 42 62 104 28 63 108 15 69 116 14 
70 117 15 71 115 26 66 107 37 64 118 30 69 109 20 71 110 31 62 102 31 
79 122 43 65 112 20 73 123 24 56 107 15 55 110 17 60 103 11 68 110 26 
66 109 30 73 118 35 60 110 15 67 119 18 60 111 18 57 114 17 59 106 10 
58 104 14 58 103 18 62 111 20 65 117 17 66 118 17 67 121 23 59 117 17 
60 112 14 49 100 5 50 101 6 54 106 8 63 118 17 52 107 5 66 121 19 
