P3
8 8
255
85 113 52 80 109 45 76 102 39 79 104 46 73 98 41 79 98 43 73 96 44 60 86 38 
86 114 55 83 111 50 97 122 65 88 112 64 81 104 60 79 97 45 78 100 51 72 98 51 
97 118 49 87 100 47 96 102 64 102 104 67 88 89 49 71 89 63 66 92 53 58 93 37 
75 94 49 77 91 55 89 101 63 94 106 56 99 111 47 83 94 34 80 94 41 72 90 50 
61 81 54 69 88 60 84 105 62 83 108 42 85 110 26 85 94 63 83 94 62 75 90 57 
67 92 53 69 97 49 87 116 58 82 115 44 64 99 19 70 97 42 69 97 48 63 91 53 
75 106 39 73 107 31 91 124 53 87 118 58 73 106 53 95 125 65 91 121 59 
78 108 44 74 106 31 77 111 27 88 120 47 79 105 57 87 110 81 90 101 93 
95 107 83 97 109 61 
