P3
8 8
255
37 81 30 49 88 61 84 121 44 71 104 33 33 66 39 40 84 31 48 95 15 55 97 31 
57 99 33 42 74 51 69 102 31 83 116 29 45 70 49 30 68 9 76 123 45 72 118 30 
50 92 20 57 95 8 71 104 23 86 114 53 61 87 52 31 63 0 77 119 71 87 133 45 
25 56 24 63 96 27 89 125 29 93 127 53 74 107 50 44 71 52 15 51 39 75 117 51 
23 48 42 31 50 56 52 91 10 76 125 18 78 126 27 68 109 51 12 47 41 36 75 30 
58 85 50 34 52 64 29 68 15 70 128 25 75 137 28 80 140 26 57 97 60 22 60 19 
65 96 28 48 75 34 21 63 13 53 115 29 43 106 35 47 111 25 60 106 34 44 83 36 
42 69 28 39 80 46 13 56 29 43 82 3 93 134 28 64 109 50 58 88 52 50 82 33 
