P3
8 8
255
49 71 56 51 73 57 52 74 59 51 73 57 48 70 55 47 69 53 48 70 54 49 71 56 
46 68 52 48 69 54 49 71 55 48 70 54 45 67 52 44 66 50 45 67 52 47 69 54 
42 64 49 44 65 51 45 67 52 44 65 51 42 63 49 41 63 48 43 64 50 45 67 52 
41 63 50 43 64 51 44 65 52 43 64 51 40 62 49 40 62 49 43 64 51 45 66 53 
44 65 53 45 66 54 45 66 54 43 64 52 41 62 50 41 62 50 43 65 53 46 67 55 
46 67 56 46 67 57 46 67 56 43 64 54 41 62 51 40 61 51 43 64 53 46 67 56 
46 67 57 46 67 58 45 66 56 42 63 53 39 59 50 38 59 49 41 61 52 44 64 55 
46 66 57 46 66 57 44 65 55 40 61 52 36 57 48 36 56 47 38 59 50 41 62 52 
