P3
8 8
255
46 78 29 55 84 38 51 76 36 47 67 30 52 73 34 53 76 32 63 89 41 61 89 38 
43 76 19 54 82 31 42 65 19 57 78 35 47 65 23 65 87 40 60 85 30 53 81 22 
53 85 18 49 79 17 54 79 24 54 74 23 66 86 35 64 85 28 68 94 29 43 73 3 53 77 27 
63 93 33 57 94 25 55 95 32 55 94 41 51 85 35 57 87 27 57 85 11 52 84 11 
59 93 17 56 92 18 58 94 32 51 84 37 34 65 23 41 71 19 54 84 20 57 98 2 62 101 10 
60 94 17 62 91 33 55 82 41 39 67 29 41 72 28 52 87 31 61 107 8 64 104 15 
57 88 18 53 77 25 54 76 37 49 76 35 41 75 25 35 74 17 65 108 26 61 98 28 
52 81 25 48 71 25 54 77 31 52 80 29 37 72 14 28 68 5 
