P3
8 8
255
15 97 33 13 98 33 14 99 34 14 99 34 15 100 35 15 100 33 15 100 33 14 101 33 
16 98 36 15 97 35 13 97 35 13 97 35 14 98 36 15 100 33 14 101 33 14 101 33 
17 99 37 14 98 36 14 98 36 13 97 35 13 97 35 14 99 32 13 100 32 13 100 32 
15 100 35 16 101 36 14 100 35 13 99 34 12 98 33 12 97 32 12 97 32 11 97 32 
13 99 34 15 101 36 15 101 36 12 101 35 11 100 34 14 96 34 14 96 34 12 97 32 
12 99 31 12 101 33 14 103 35 14 103 35 13 102 34 17 97 36 15 97 35 13 97 35 
17 98 31 24 96 33 17 102 35 11 102 35 13 99 34 16 101 36 14 99 34 13 98 33 
16 98 32 20 96 32 14 101 33 11 102 33 17 102 35 13 98 33 13 98 33 14 99 34 
