P3
8 8
255
16 106 34 15 113 36 17 122 40 19 127 42 21 125 40 21 121 35 17 127 41 
19 127 42 16 118 34 23 114 44 19 120 44 11 130 36 13 131 34 17 123 35 
28 112 50 22 108 45 19 121 35 23 115 42 16 125 44 11 132 35 10 124 28 
21 126 42 30 101 45 43 93 40 20 124 37 19 116 39 12 129 41 10 135 33 13 122 29 
28 124 50 25 102 48 32 108 46 18 124 36 14 122 37 12 125 35 11 133 32 
20 128 43 35 105 53 25 103 51 21 123 50 14 124 35 11 131 41 18 121 32 
15 126 32 25 125 55 32 65 44 35 86 43 34 113 48 16 126 37 16 135 45 23 123 37 
19 118 35 27 99 53 26 26 38 42 77 37 24 115 48 22 128 40 21 124 41 21 126 41 
24 111 40 26 57 41 29 4 44 36 90 40 8 126 52 
