P3
8 8
255
25 123 46 28 113 45 25 99 36 11 96 28 10 104 30 9 107 32 10 102 29 16 97 28 
23 127 50 26 119 48 21 103 37 24 97 24 21 109 33 15 114 34 10 107 30 14 100 25 
24 109 42 23 113 43 16 99 29 8 105 26 12 106 30 17 109 36 17 104 35 12 97 29 
14 114 41 12 116 37 8 105 28 16 106 36 17 104 36 14 101 33 11 98 30 10 97 28 
8 115 35 6 115 32 10 107 26 17 104 36 18 104 39 14 99 34 12 99 31 16 106 36 
8 111 30 9 111 28 19 108 28 11 108 29 16 110 34 12 104 31 11 103 30 20 112 39 
7 110 29 10 112 28 25 112 31 11 118 24 17 121 32 13 112 29 9 106 27 15 112 33 
7 116 33 9 117 32 22 117 35 13 120 24 22 127 35 24 122 37 19 113 35 20 114 38 
