P3
8 8
255
13 98 31 15 100 33 14 99 34 12 97 32 13 95 31 14 96 32 15 97 33 14 96 32 
17 102 35 25 110 42 18 103 36 12 97 30 10 95 28 15 97 33 16 98 34 14 94 33 
20 103 35 26 111 43 20 105 38 15 100 33 12 97 30 15 97 33 17 97 34 16 96 35 
15 97 31 17 102 34 19 101 35 18 100 34 15 97 31 13 95 31 16 96 33 18 98 37 
13 95 29 14 96 30 14 94 31 16 96 33 15 95 32 13 93 30 15 95 32 19 99 36 
15 97 33 16 98 34 14 92 32 15 93 33 15 93 33 15 95 32 16 96 33 17 99 33 
15 95 34 15 97 35 19 94 37 17 92 35 16 94 34 19 99 36 19 99 36 15 97 31 
14 98 38 10 96 33 17 93 31 16 94 34 17 99 37 16 100 38 12 98 35 13 97 35 
