P3
8 8
255
0 114 0 13 112 4 4 119 0 1 118 1 0 115 1 1 115 2 8 118 5 7 116 1 0 117 2 
0 116 1 1 116 0 0 116 1 0 113 0 0 113 0 4 117 1 4 114 0 5 122 7 0 122 0 
1 116 0 2 116 2 0 115 1 0 116 1 4 119 2 2 117 0 9 126 9 0 122 0 0 117 0 
4 118 4 3 117 4 1 118 3 3 122 2 2 120 0 6 125 7 3 116 0 0 114 0 2 116 2 
2 116 2 1 118 1 2 126 2 1 124 0 1 118 3 9 111 1 0 114 0 2 116 2 2 115 1 
0 119 0 3 129 4 4 130 4 0 111 0 5 111 3 0 119 3 4 116 4 2 115 1 0 118 0 
1 132 4 5 134 7 0 108 0 0 113 5 2 121 5 5 117 5 2 112 0 0 115 0 0 129 1 
3 134 6 
