P3
8 8
255
5 128 12 14 124 11 20 118 5 18 121 4 12 130 7 5 131 5 0 125 0 3 123 0 6 124 4 
14 123 4 18 123 4 16 128 4 10 135 5 4 135 3 2 127 0 8 124 0 6 122 0 15 127 1 
19 129 4 15 134 4 12 139 6 6 137 5 6 130 0 12 126 2 4 125 0 15 130 3 23 132 7 
22 131 6 17 133 6 8 131 4 4 127 0 4 127 2 2 129 0 17 133 8 26 130 9 28 123 7 
22 121 5 10 121 1 0 122 0 0 126 0 3 134 4 17 138 11 25 130 11 24 121 6 
21 118 3 11 120 1 0 124 0 0 131 2 8 133 3 14 138 8 14 135 8 11 127 4 11 125 3 
9 127 4 4 131 2 2 136 3 9 126 0 9 135 2 3 134 2 0 131 0 0 130 0 3 133 1 
7 134 1 9 137 1 
