P3
8 8
255
6 133 0 15 134 4 23 135 9 14 128 4 11 127 2 10 122 0 6 130 6 23 121 10 
1 128 0 13 129 4 22 132 11 10 121 0 8 126 3 8 126 3 1 127 4 24 116 9 0 123 0 
4 124 1 12 127 6 3 118 0 6 125 5 17 130 12 4 121 6 18 111 5 0 120 0 0 121 1 
2 124 5 5 120 3 11 120 5 34 127 20 20 113 9 16 106 6 4 117 1 0 119 2 1 122 6 
17 121 10 20 105 1 46 113 18 41 101 13 25 106 13 8 114 3 0 118 4 4 121 7 
28 119 14 28 94 0 49 99 12 55 94 15 37 107 19 3 121 0 8 123 0 6 131 5 13 119 18 
36 89 21 46 97 20 50 103 23 43 105 19 0 131 2 0 136 4 9 122 6 29 98 9 32 78 6 
39 98 16 41 100 16 39 105 17 
