P3
8 8
255
10 167 0 14 165 2 21 162 8 7 142 3 4 136 0 3 140 0 10 157 6 15 174 9 2 179 0 
9 165 6 8 145 6 1 121 0 0 120 0 0 125 0 4 141 1 10 161 6 0 179 2 1 155 5 
0 128 2 6 120 6 5 122 5 2 125 1 0 128 0 1 142 1 3 158 2 0 135 0 3 122 2 
2 121 5 2 124 5 0 124 2 0 120 0 0 127 0 0 138 1 0 126 0 0 128 5 0 124 2 
0 124 0 0 124 0 3 122 2 4 123 3 1 118 1 2 115 1 10 123 5 4 130 4 0 125 0 
0 123 0 8 123 4 9 119 6 2 120 0 1 120 2 1 118 1 3 125 4 0 122 1 0 122 0 
1 125 1 2 126 2 1 123 2 1 123 2 0 121 2 2 124 3 0 121 0 0 121 0 2 125 1 
2 125 1 
