P3
8 8
255
36 62 64 33 59 60 31 57 57 33 60 58 38 65 62 41 68 64 40 67 62 37 64 59 
32 58 59 29 55 56 27 53 53 28 54 53 33 60 57 39 66 62 44 71 66 47 74 69 
33 59 60 31 57 58 27 54 54 25 51 50 26 53 50 33 60 56 42 69 64 49 76 71 
38 64 65 37 63 64 34 60 60 28 54 53 24 50 48 26 52 49 33 60 55 40 67 61 
37 63 65 39 65 66 38 65 64 34 60 59 28 55 52 25 52 48 28 55 50 31 58 53 
33 59 60 35 61 62 37 63 63 37 63 62 35 61 59 33 59 56 32 59 54 32 59 54 
35 61 62 34 60 61 35 61 61 37 63 62 39 65 63 39 66 62 37 64 59 35 62 57 
41 67 68 37 63 64 34 60 60 35 62 60 39 66 63 41 68 64 39 66 61 36 63 58 
