P3
8 8
255
87 123 53 67 100 31 72 104 37 98 123 57 92 126 52 56 120 33 18 108 8 15 114 8 
67 109 35 57 90 21 60 109 28 68 123 40 54 124 35 30 117 20 20 108 6 24 109 6 
38 104 17 41 103 18 27 114 10 26 117 12 16 118 9 1 113 1 14 116 7 25 112 7 
10 112 3 16 128 16 0 126 0 4 118 0 6 117 0 0 117 0 7 129 10 12 119 5 0 123 0 
0 135 5 0 137 2 3 128 0 6 127 0 0 126 0 5 133 10 5 120 3 0 128 0 0 128 0 
4 134 2 4 131 2 0 130 0 0 128 0 9 127 5 13 116 1 2 127 1 3 126 1 2 128 2 
4 127 2 0 124 0 1 125 1 11 122 2 19 117 4 2 122 0 3 125 4 0 135 5 10 128 6 
13 118 0 16 125 6 12 125 7 16 125 8 
