P3
8 8
255
19 154 0 25 155 3 21 160 7 12 161 7 3 152 0 4 143 0 4 130 0 1 119 0 2 151 0 
7 154 3 8 158 9 0 154 3 8 147 6 10 140 6 12 133 6 11 129 6 0 147 3 0 146 3 
0 139 4 0 125 0 0 127 0 1 124 0 4 119 0 4 119 0 5 128 3 4 127 3 8 119 1 
10 108 0 0 122 0 2 120 0 3 116 0 3 116 0 0 123 1 0 121 1 0 117 1 5 119 6 
1 120 4 4 118 4 5 115 2 2 115 1 11 126 7 6 116 1 0 112 0 0 122 5 0 118 4 
4 116 4 6 114 3 4 114 2 0 117 0 5 118 2 0 113 0 1 122 6 1 120 4 1 118 3 
2 116 2 2 116 2 1 120 2 5 118 2 0 115 0 2 123 7 1 120 2 0 117 2 2 116 2 
2 116 2 
