P3
8 8
255
86 102 39 77 107 37 74 118 43 84 111 44 95 116 60 96 115 51 71 117 27 
37 130 16 90 117 46 74 110 38 87 123 53 67 100 31 72 104 37 98 123 57 
92 126 52 56 120 33 70 119 40 74 123 44 67 109 35 57 90 21 60 109 28 68 123 40 
54 124 35 30 117 20 54 113 29 64 130 43 38 104 17 41 103 18 27 114 10 
26 117 12 16 118 9 1 113 1 47 112 20 42 127 26 10 112 3 16 128 16 0 126 0 
4 118 0 6 117 0 0 117 0 35 122 15 15 124 5 0 123 0 0 135 5 0 137 2 3 128 0 
6 127 0 0 126 0 13 133 9 0 126 0 0 128 0 0 128 0 4 134 2 4 131 2 0 130 0 
0 128 0 0 131 3 0 129 0 2 127 1 3 126 1 2 128 2 4 127 2 0 124 0 1 125 1 
