P3
8 8
255
57 115 31 23 125 13 14 124 9 0 119 0 0 118 0 4 124 1 11 126 5 4 122 0 46 116 27 
13 122 3 6 126 2 0 125 0 4 125 0 20 128 8 24 127 9 10 124 3 46 111 21 
12 117 0 6 129 2 0 136 4 4 133 4 19 131 7 21 126 7 10 124 3 67 111 24 
29 119 6 18 129 9 0 132 4 0 130 0 0 126 0 7 122 1 4 122 2 77 106 26 41 111 15 
29 116 12 9 117 5 0 119 0 0 124 1 0 124 2 0 119 1 63 95 20 53 102 23 50 103 21 
38 104 14 21 109 7 10 120 8 2 123 7 0 119 1 59 100 30 68 107 40 76 107 39 
68 102 28 45 100 16 18 109 6 3 115 3 1 118 3 73 110 33 73 114 36 75 115 45 
75 105 45 60 90 26 32 94 8 8 112 1 5 118 2 
