P3
8 8
255
67 80 62 56 71 52 58 72 55 63 77 60 66 80 63 65 79 62 61 75 58 60 74 57 
60 72 60 64 76 64 73 76 65 67 75 62 60 77 58 59 85 60 49 86 53 39 84 45 
56 80 54 57 83 58 44 83 52 37 81 48 35 82 46 32 87 45 29 88 42 25 89 39 
38 94 47 37 95 47 23 91 40 18 88 36 16 89 34 15 90 34 15 90 33 18 93 34 
24 106 42 20 105 40 23 90 36 19 88 33 21 92 34 18 89 31 16 87 29 21 92 34 
25 107 41 23 105 39 26 86 34 21 84 31 26 91 37 19 88 33 16 85 30 19 90 34 
31 99 40 32 100 39 25 90 36 16 83 29 22 93 37 17 92 35 12 90 32 15 95 36 
29 99 39 33 103 41 29 98 43 14 85 29 19 92 36 15 93 35 14 94 35 17 97 38 
