P3
8 8
255
17 113 39 24 118 44 23 115 42 16 102 31 17 96 30 23 97 34 15 96 29 14 100 29 
23 110 39 26 112 41 24 107 37 23 105 39 20 102 38 18 102 40 14 105 38 
16 108 41 26 106 37 27 107 38 24 103 37 18 96 36 19 99 40 21 96 40 25 98 45 
27 97 43 23 102 36 22 105 37 22 104 38 24 94 40 33 102 48 42 95 51 62 93 59 
56 87 53 19 101 37 16 102 37 16 105 41 41 97 52 40 104 54 48 99 56 71 98 67 
66 92 63 20 101 42 18 99 41 21 102 44 54 94 57 32 99 48 29 102 47 50 103 59 
49 99 61 28 98 44 28 94 46 36 98 51 60 94 61 28 98 44 28 113 48 48 108 56 
50 101 60 33 95 46 40 91 50 53 97 61 57 92 59 29 98 43 43 117 54 67 107 57 
65 91 56 
