P3
8 8
255
15 91 19 18 95 23 18 99 23 16 97 21 16 92 18 19 92 19 19 97 22 19 100 24 
18 94 20 22 103 27 24 106 30 22 103 27 18 96 21 18 94 20 22 100 25 24 106 30 
19 95 20 23 112 32 18 120 37 13 108 27 15 93 18 24 94 21 29 103 24 25 110 27 
20 119 28 26 122 33 27 116 32 22 103 26 19 95 20 20 96 21 20 101 24 18 101 23 
19 114 20 23 106 18 28 97 17 26 93 16 19 97 21 12 105 25 9 108 26 6 108 25 
19 124 32 19 115 28 21 106 23 24 103 24 26 103 25 25 104 25 24 103 24 
24 103 24 37 108 38 27 111 36 18 115 34 18 116 31 23 112 28 27 109 24 
27 111 23 26 116 26 48 86 29 34 100 29 21 116 32 15 126 32 17 127 28 19 130 27 
17 139 30 14 148 33 
