P3
8 8
255
15 107 22 21 110 26 10 110 24 18 117 26 22 119 22 18 114 16 17 112 18 
21 116 26 16 108 23 18 110 25 15 113 26 18 117 26 18 115 18 12 107 13 
10 105 13 13 107 19 20 112 25 19 111 24 16 115 24 18 115 22 16 111 19 
10 105 15 9 103 17 14 108 22 20 112 25 19 112 23 15 111 21 17 112 20 16 111 21 
14 106 21 14 106 23 18 112 26 18 108 21 14 106 19 13 108 18 17 110 21 
19 112 23 18 110 25 16 108 25 16 110 24 16 104 20 15 103 17 12 104 19 
14 106 19 20 110 22 19 111 24 18 110 25 15 109 23 17 100 20 17 102 21 
13 101 23 12 101 17 15 105 17 19 109 19 20 113 24 18 114 25 15 96 17 18 101 21 
14 102 26 11 100 18 11 101 11 17 108 15 21 114 23 20 116 26 
