P3
8 8
255
12 93 16 15 88 15 13 70 15 9 73 12 14 87 18 13 96 18 10 97 16 19 108 24 
12 88 14 14 84 14 16 75 19 10 74 13 15 88 19 19 100 24 15 100 19 18 105 24 
16 89 20 16 82 18 12 76 16 8 77 14 14 87 18 18 99 23 17 100 22 17 101 23 
18 90 24 16 80 19 9 78 15 11 82 16 14 90 18 16 97 21 17 98 21 16 97 20 
18 88 25 14 75 16 10 82 16 16 91 22 19 96 24 16 97 21 18 99 22 20 98 23 
17 86 23 13 78 22 11 87 15 12 90 15 17 98 19 19 102 20 16 99 17 15 98 18 
14 84 21 13 78 20 14 90 18 14 92 17 18 99 20 20 103 21 17 100 18 16 99 19 
14 86 20 15 83 22 17 94 22 16 94 19 18 99 22 19 102 22 17 100 20 17 100 22 
