P3
8 8
255
20 112 25 23 113 26 26 109 29 26 102 27 29 94 40 21 102 33 22 114 31 29 114 31 
16 110 22 22 112 25 27 110 30 30 106 31 37 96 28 16 110 22 3 126 20 9 126 22 
15 109 21 20 109 25 26 109 29 28 107 28 51 76 46 36 85 40 34 91 38 45 87 39 
18 110 25 19 108 24 22 107 24 22 105 23 42 82 45 34 86 40 33 92 38 33 92 34 
21 110 28 19 108 24 19 107 23 22 107 22 40 89 34 35 93 32 34 100 29 31 102 24 
19 106 27 19 106 25 21 111 24 24 114 26 31 91 37 22 100 40 23 105 39 27 103 31 
20 102 28 18 105 24 19 111 24 23 118 26 43 95 29 27 104 32 19 113 35 17 112 28 
20 100 29 18 102 24 17 110 21 20 117 22 16 110 22 16 110 26 21 108 30 
22 105 27 
