P3
8 8
255
39 66 60 39 66 60 39 66 59 39 66 58 39 66 57 39 67 56 39 67 55 39 67 55 
38 65 59 38 65 59 38 65 58 38 65 57 38 65 56 38 65 55 38 66 54 38 66 54 
36 63 58 36 63 58 36 63 57 36 63 56 36 63 55 36 64 54 36 64 53 36 64 53 
34 61 58 34 61 57 34 61 57 34 61 56 34 61 54 34 62 53 34 62 53 34 62 52 
33 59 58 33 59 57 33 60 57 33 60 56 33 60 54 33 60 53 33 60 53 33 60 52 
33 59 59 33 59 58 33 59 57 33 59 56 33 60 55 33 60 54 33 60 53 33 60 53 
33 59 59 33 59 59 33 59 58 33 59 57 33 60 56 33 60 55 33 60 54 33 60 54 
33 59 60 33 59 60 33 59 59 33 60 58 33 60 57 33 60 56 33 60 55 33 60 55 
