P3
8 8
255
35 112 34 25 103 27 23 99 25 30 101 33 29 98 33 16 105 25 19 106 25 19 106 25 
37 111 36 34 108 33 34 107 34 30 103 32 33 106 37 22 105 25 19 102 22 
19 102 22 40 110 37 45 117 43 42 116 41 28 104 30 36 114 39 35 111 36 
23 101 25 14 95 18 34 106 32 47 119 45 47 121 46 31 107 32 34 112 37 38 110 37 
25 98 25 16 92 18 29 103 28 41 115 40 50 124 49 41 115 40 32 105 32 29 98 31 
23 94 26 21 94 23 27 108 31 34 110 35 43 116 43 46 116 44 36 103 32 30 96 34 
26 95 30 25 97 31 30 113 35 29 110 34 30 103 30 44 111 40 41 104 34 41 107 46 
34 103 40 28 100 34 25 106 29 25 112 34 23 105 29 42 110 37 54 107 39 
55 105 52 47 105 44 48 111 40 
