P3
8 8
255
12 118 17 13 122 17 14 125 20 17 125 23 16 122 22 12 108 19 18 112 24 
15 105 17 10 114 15 13 121 19 19 128 23 21 129 27 20 128 26 16 115 24 
21 116 26 16 109 20 14 113 20 17 121 22 19 125 24 16 124 22 12 120 18 
15 114 23 17 113 23 15 108 19 15 111 21 17 118 22 17 121 22 14 120 19 
10 119 14 9 110 18 12 108 18 13 106 15 12 104 19 14 109 19 16 116 20 19 123 24 
23 129 28 10 109 18 13 108 18 16 109 20 15 102 21 14 103 19 14 109 19 
17 117 21 22 124 25 15 111 24 16 108 21 17 110 21 19 103 25 16 103 22 
14 104 17 13 108 16 14 111 16 14 108 24 17 106 22 19 109 22 17 99 23 17 101 23 
16 104 20 16 109 20 17 112 20 11 102 22 15 104 22 21 109 23 
