P3
8 8
255
26 110 14 26 110 16 23 110 15 14 108 11 13 109 11 16 107 11 16 103 8 14 103 13 
35 108 19 30 111 19 23 113 17 17 111 14 16 110 13 19 108 14 20 105 12 
22 108 19 45 109 25 37 113 23 28 115 20 23 115 16 23 113 17 23 110 16 
24 107 15 25 112 18 49 110 30 39 115 25 29 115 18 29 115 16 26 112 15 
22 107 13 22 107 14 23 110 15 49 110 30 40 115 24 31 113 15 32 114 14 
30 112 14 22 108 11 19 108 14 25 110 17 50 111 31 42 117 26 35 115 16 
39 117 16 35 115 16 26 112 15 23 114 18 31 111 22 28 106 20 38 111 19 
60 116 27 60 119 29 43 118 25 40 117 23 52 117 25 39 119 34 31 110 18 
29 119 19 34 119 18 43 116 24 51 117 29 55 114 30 57 110 28 62 108 35 
