P3
8 8
255
47 87 37 42 87 28 28 100 24 24 124 12 29 126 19 31 121 21 29 114 20 29 113 19 
56 85 39 58 81 29 51 88 21 24 124 12 29 126 19 32 124 25 29 119 23 29 119 23 
26 100 13 28 104 14 28 107 15 23 118 14 27 120 16 29 120 17 33 121 19 
34 125 20 22 109 15 22 112 16 24 115 19 15 114 8 18 115 12 21 116 14 24 117 13 
26 122 15 17 115 14 16 118 16 16 121 16 13 114 10 14 115 11 17 115 12 
18 115 12 20 119 13 14 115 11 13 116 11 14 117 12 15 116 12 18 116 13 
19 115 15 18 115 12 18 115 12 14 111 6 14 109 7 17 109 8 16 112 12 18 113 13 
20 112 13 18 110 11 16 108 9 17 107 7 18 106 6 20 106 9 16 108 9 16 108 9 
18 108 12 20 107 12 17 107 11 
