P3
8 8
255
30 116 19 42 115 25 56 115 33 65 113 39 66 109 38 48 112 26 35 111 20 
19 114 12 14 111 8 18 116 15 33 120 25 52 116 32 67 107 34 37 112 21 28 114 17 
17 116 10 15 110 6 14 115 9 19 117 14 33 117 23 46 116 28 30 116 19 22 117 15 
14 120 9 24 117 13 27 114 10 23 109 8 19 116 13 20 127 23 24 121 18 17 118 12 
14 122 10 22 119 14 22 119 12 20 117 10 21 118 13 22 119 16 21 116 12 
17 123 12 13 124 6 19 116 11 19 116 9 18 115 10 19 116 13 21 117 17 24 117 13 
18 122 11 16 118 6 15 112 7 17 114 9 17 114 9 19 115 15 21 117 17 23 118 14 
21 120 12 25 118 11 14 111 6 16 113 8 18 115 12 19 115 15 21 117 19 22 119 14 
22 121 13 31 119 15 
