P3
8 8
255
15 163 25 15 156 18 21 136 7 25 123 4 25 122 7 22 126 13 26 137 17 26 135 20 
24 150 15 18 148 12 13 136 9 16 126 11 22 123 19 28 124 26 5 141 9 12 144 9 
13 149 13 15 146 16 23 136 22 29 123 26 28 117 27 24 114 24 14 137 12 
20 144 10 10 141 11 21 132 14 39 114 23 49 99 26 44 94 23 34 95 18 18 132 19 
18 144 11 23 133 12 26 125 16 25 114 22 27 106 27 35 103 28 42 104 27 
30 105 14 27 125 6 21 135 14 13 124 4 17 126 9 17 119 9 24 121 14 23 116 12 
48 103 36 44 99 32 20 131 13 14 125 7 17 127 12 14 122 10 19 122 15 17 118 14 
36 114 13 45 95 24 17 124 10 14 124 9 17 127 14 13 123 11 14 122 13 13 120 14 
24 118 21 35 108 27 
