P3
8 8
255
20 126 16 17 114 17 13 109 12 18 109 16 17 106 14 15 106 11 15 109 13 
10 110 11 24 134 19 19 117 16 16 111 11 20 111 15 17 107 11 17 107 11 
17 112 12 13 114 10 19 134 15 19 118 12 16 111 7 20 111 8 19 107 7 17 108 5 
18 113 9 15 117 8 29 128 19 15 134 8 17 123 13 14 105 10 13 102 12 19 115 17 
16 119 14 12 113 9 23 122 14 20 131 13 23 124 18 21 115 19 21 112 17 20 118 17 
12 115 8 8 109 5 16 115 9 11 112 6 15 112 9 17 111 14 21 117 17 23 126 19 
17 123 13 15 116 10 15 113 10 20 111 15 14 109 9 12 109 6 17 119 10 20 126 15 
17 123 12 13 116 9 15 116 14 25 114 20 17 112 12 14 113 7 15 119 8 15 121 10 
16 122 11 15 121 11 
