P3
8 8
255
29 108 27 21 85 9 19 92 11 18 103 12 19 110 14 20 115 13 17 115 12 13 116 11 
15 123 14 21 130 21 23 100 22 17 59 11 21 52 11 32 84 22 28 108 21 16 112 12 
16 122 14 2 139 0 30 121 18 41 77 29 35 47 25 32 58 21 22 86 12 11 107 0 
16 119 14 9 119 6 28 126 23 33 120 25 23 113 15 20 119 13 18 119 15 17 106 14 
16 117 13 9 122 8 13 121 10 14 122 10 14 132 12 19 143 19 15 137 18 13 118 15 
18 116 13 14 119 1 19 117 6 20 115 11 21 120 14 19 127 15 15 128 10 15 126 6 
18 114 14 24 104 19 26 116 20 22 126 13 9 130 1 4 134 0 13 138 10 22 133 15 
16 111 11 13 113 14 15 118 13 13 119 8 7 117 4 5 119 5 12 131 15 16 135 17 
