P3
8 8
255
15 111 11 10 105 5 12 107 7 20 115 15 21 113 14 14 106 7 20 105 12 15 107 8 
17 111 14 11 105 8 15 106 10 21 112 16 21 111 15 14 104 8 18 105 11 17 109 10 
16 107 12 15 104 10 16 102 11 17 103 12 17 102 11 14 99 8 13 102 8 18 113 13 
17 106 14 19 105 14 17 103 14 15 99 11 14 97 9 15 97 12 13 104 8 18 115 12 
17 108 12 17 108 13 17 106 12 17 103 12 16 101 10 15 99 11 12 108 8 18 116 13 
14 110 10 13 108 8 16 107 11 18 108 12 15 104 10 13 100 6 14 111 8 16 117 11 
15 110 10 16 110 13 17 107 11 14 103 9 16 102 11 19 104 13 18 113 13 18 109 13 
11 107 7 13 108 8 16 107 11 15 104 10 15 102 8 15 102 8 16 111 11 15 106 10 
