P3
8 8
255
57 40 33 50 37 29 44 34 25 46 36 27 51 41 31 49 43 29 45 48 29 46 56 32 
69 56 48 58 52 40 49 54 34 46 56 31 41 56 23 37 63 18 34 74 21 30 84 22 
60 60 50 50 61 44 46 72 43 44 81 38 33 80 25 24 88 14 16 100 12 8 108 10 
32 80 28 32 87 29 34 101 32 33 110 32 25 111 22 16 106 10 15 107 8 20 110 10 
27 87 25 29 94 30 33 104 34 33 114 35 26 114 27 17 111 15 15 112 9 17 116 10 
18 94 19 21 97 22 27 105 30 32 113 36 29 117 33 22 117 23 17 118 14 15 121 11 
12 98 11 13 97 12 18 99 22 28 106 31 32 115 35 29 119 31 22 122 23 18 124 16 
12 101 7 11 95 7 15 94 13 23 99 24 33 109 34 34 118 33 30 121 28 24 120 20 
