P3
8 8
255
41 66 60 41 66 61 42 67 61 42 68 62 43 69 63 44 70 64 45 70 65 45 71 65 
41 67 61 42 67 61 42 68 62 43 68 62 44 69 63 44 70 64 45 70 65 45 71 65 
43 68 61 43 68 62 43 69 62 44 69 62 44 70 63 45 70 64 45 71 64 45 71 64 
45 70 62 45 70 62 45 71 62 45 71 63 45 71 63 45 71 63 46 71 63 46 71 63 
47 73 63 47 73 63 47 72 63 46 72 63 46 72 63 46 72 63 46 72 62 46 72 62 
49 75 64 48 75 64 48 74 64 48 74 63 47 73 63 46 73 62 46 72 62 46 72 62 
50 76 65 50 76 65 49 76 64 48 75 63 48 74 62 47 73 62 46 73 61 46 72 61 
51 77 65 51 77 65 50 76 64 49 75 63 48 74 62 47 73 62 46 73 61 46 72 61 
