P3
8 8
255
64 81 37 60 82 36 54 83 29 48 91 22 34 96 13 23 97 8 16 99 7 17 106 12 
56 82 35 43 86 30 32 93 24 26 104 20 20 109 15 13 107 10 10 106 9 18 105 10 
49 81 31 31 90 24 15 100 15 12 114 14 10 117 11 10 111 9 11 107 10 18 105 10 
46 84 27 30 92 19 17 102 9 14 113 7 14 113 5 14 106 7 18 103 12 19 106 11 
33 94 24 27 99 17 23 104 9 21 110 4 18 110 3 17 105 5 20 105 12 20 107 10 
16 106 18 17 107 17 19 111 12 19 115 8 16 112 5 13 110 7 15 111 14 18 108 10 
12 109 12 11 111 15 13 115 15 16 119 14 14 115 9 12 108 8 14 110 13 15 107 8 
19 106 11 12 108 11 12 114 15 16 118 16 15 113 10 14 104 6 16 101 7 14 106 7 
