P3
8 8
255
46 74 71 44 73 70 43 71 69 42 71 68 43 71 69 45 74 71 48 76 74 50 78 76 
46 74 72 45 73 71 44 72 70 43 72 69 44 72 70 46 74 72 49 77 74 50 79 76 
47 75 73 46 74 72 45 73 71 45 73 71 46 74 71 47 76 73 50 78 75 51 79 77 
47 76 73 47 75 73 46 75 72 46 74 72 47 75 73 49 77 74 50 79 76 51 80 77 
47 75 73 47 75 73 47 75 73 47 75 73 48 76 74 49 77 75 50 79 76 51 80 77 
46 74 72 46 75 72 46 75 72 47 75 73 48 76 74 49 77 75 50 78 76 50 79 76 
45 73 71 45 74 71 46 74 72 47 75 73 47 76 73 48 77 74 49 77 75 49 77 75 
44 73 70 45 73 71 45 74 71 46 75 72 47 75 73 48 76 74 48 77 74 48 77 74 
