P3
8 8
255
49 66 63 48 65 63 47 64 64 45 63 64 43 62 66 42 62 68 42 63 69 42 63 70 
48 65 63 48 65 64 47 65 65 46 64 66 45 64 67 43 63 68 41 62 68 40 62 68 
47 63 63 47 64 64 48 65 67 48 66 68 46 66 69 43 64 67 40 62 66 39 60 65 
45 60 63 46 62 65 48 66 68 49 68 70 48 67 70 44 65 67 40 62 64 38 59 62 
43 58 63 45 61 65 48 65 68 49 68 71 49 68 70 45 66 67 41 63 63 38 61 61 
41 56 63 43 59 65 46 63 68 49 67 70 49 68 70 46 67 67 43 65 64 41 64 62 
40 55 63 42 57 65 45 61 67 47 65 69 48 68 69 47 68 67 45 68 65 44 67 63 
39 54 64 41 56 65 44 60 67 46 64 68 48 67 68 48 69 67 47 70 66 46 69 65 
