P3
8 8
255
45 70 46 43 69 45 42 68 46 42 69 49 43 71 52 41 69 53 36 66 51 33 62 48 
60 83 64 58 82 63 56 81 62 55 80 64 53 80 65 49 77 63 42 71 58 37 66 54 
46 68 55 46 68 56 47 70 58 49 74 62 51 76 65 49 75 65 43 70 61 39 66 57 
35 54 46 35 55 47 37 58 51 41 63 55 43 66 59 41 66 58 36 62 54 32 58 50 
51 70 63 50 69 62 49 69 62 49 70 62 48 70 61 43 67 57 36 61 50 31 56 45 
58 75 67 57 75 65 56 75 64 56 77 64 56 78 64 54 78 62 49 74 57 45 71 53 
51 69 56 50 68 54 50 70 54 53 74 56 57 80 59 60 83 61 59 84 60 58 83 58 
56 74 57 54 72 54 52 71 52 53 74 52 56 79 53 58 82 54 57 83 53 56 82 51 
